<svg xmlns="http://www.w3.org/2000/svg" xmlns:xlink="http://www.w3.org/1999/xlink" fill="none" version="1.1" width="32" height="32" viewBox="0 0 32 32"><defs><clipPath id="master_svg0_686_37275"><rect x="0" y="0" width="32" height="32" rx="0"/></clipPath></defs><g clip-path="url(#master_svg0_686_37275)"><g><path d="M7.17630515625,7.3091064640625C6.36211515625,7.4116061640625,5.54796515625,8.0855441640625,5.28143515625,8.8618531640625C5.10383515625,9.3452931640625,1.92093335625,23.0562431640625,1.90627700625,23.3052431640625C1.87662075625,24.0230431640625,2.29108915625,24.5504431640625,2.97202515625,24.6822431640625C3.2237451562499997,24.7408431640625,11.30649515625,24.7408431640625,11.57302515625,24.6822431640625C12.34278515625,24.5357431640625,13.06808515625,23.9351431640625,13.33468515625,23.2027431640625C13.43828515625,22.924443164062502,16.72468515625,8.9498531640625,16.72468515625,8.7154131640625C16.76908515625,8.0561671640625,16.36928515625,7.5141671640625,15.73288515625,7.3237609640625C15.58478515625,7.2945733640625,7.51683515625,7.2651983640625,7.17630515625,7.3091064640625Z" fill="#E60012" fill-opacity="1" style="mix-blend-mode:passthrough"/></g><g><path d="M14.71126984375,7.3091064640625C13.89707984375,7.4116061640625,13.08292984375,8.0855441640625,12.816519843750001,8.8618531640625C12.65358984375,9.3452931640625,9.45608459375,23.0562431640625,9.45608459375,23.3052431640625C9.42639714375,24.0230431640625,9.84089684375,24.5504431640625,10.52195984375,24.6822431640625C10.77351984375,24.7408431640625,18.85626984375,24.7408431640625,19.122799843750002,24.6822431640625C19.89268984375,24.5357431640625,20.61798984375,23.9351431640625,20.88438984375,23.2027431640625C20.98808984375,22.924443164062502,24.27438984375,8.9498531640625,24.27438984375,8.7154131640625C24.31888984375,8.0561671640625,23.91918984375,7.5141671640625,23.28268984375,7.3237609640625C23.119689843750002,7.2945733640625,15.05179984375,7.2651983640625,14.71126984375,7.3091064640625Z" fill="#00508E" fill-opacity="1" style="mix-blend-mode:passthrough"/></g><g><path d="M22.5722496875,7.309028978125C21.7580696875,7.411529078125,20.9437496875,8.085466078125,20.6773496875,8.861775078125C20.5145696875,9.345215078125,17.3169091775,23.056105078125,17.3169091775,23.305205078125C17.2873778875,24.023005078125,17.7019086875,24.550305078125,18.3827796875,24.682205078125C18.6344996875,24.740805078125,24.6447496875,24.740805078125,24.9111596875,24.682205078125C25.6809696875,24.535605078125,26.4063796875,23.935105078125,26.6727896875,23.202705078125C26.7764096875,22.924405078124998,30.062929687500002,8.949775078125,30.062929687500002,8.715335078125C30.107229687500002,8.056090078124999,29.7075296875,7.514090078125,29.070929687499998,7.323683478125C28.923029687499998,7.279808348125,22.1725696875,7.250464478125,21.8320396875,7.294495878125L22.5722596875,7.294495878125L22.5722496875,7.309028978125Z" fill="#00908C" fill-opacity="1" style="mix-blend-mode:passthrough"/></g><g><path d="M6.9245990625000005,11.7621825734375C6.9245990625000005,11.7768700734375,6.9097190625,11.8647452734375,6.8802190625,11.9526512734375C6.5397190625,13.0952102734375,6.1991890625,14.6333102734375,6.2436590625,14.8237102734375C6.3620990625000005,15.395060273437501,7.205939062500001,15.3510902734375,7.501969062500001,14.7504902734375C7.5907890625,14.5894302734375,8.2273490625,11.9087452734375,8.2273490625,11.7183691434375C8.2273490625,11.7036816434375,9.2339690625,11.7183691434375,9.2339690625,11.7328686734375C9.2339690625,11.7328686734375,9.2339690625,11.7768688734375,9.2191290625,11.8208992734375C9.2043190625,11.8647432734375,9.0415390625,12.4799942734375,8.8639390625,13.2124302734375C8.4640990625,14.765180273437501,8.4197890625,14.9262402734375,8.2125390625,15.2338702734375C7.5314990625,16.230060273437502,5.2517220625,16.2007402734375,5.0741284225,15.1899902734375C5.0296908625,14.9702402734375,5.5182850625,12.4361182734375,5.7403780625,11.7475243734375C5.7403780625,11.7036804234375,6.9245990625000005,11.7328686734375,6.9245990625000005,11.7621825734375ZM22.0539890625,11.7621825734375C22.7348890625,11.9087452734375,22.9420890625,12.4506202734375,22.6311890625,13.2564302734375C22.3203890625,14.062060273437499,21.6542890625,14.4135602734375,20.4847890625,14.4135602734375C20.1293890625,14.4135602734375,20.158989062499998,14.3550002734375,19.9369890625,15.453620273437501C19.8925890625,15.6586802734375,19.848189062499998,15.8491202734375,19.848189062499998,15.8784302734375C19.8332890625,15.951650273437501,18.7822890625,15.951650273437501,18.7970890625,15.8784302734375C19.6853890625,12.1138072734375,19.7593890625,11.7915575734375,19.7593890625,11.7621825734375L19.7741890625,11.7183703634375L20.839989062500003,11.7183703634375C21.6837890625,11.7328698734375,21.9206890625,11.7328698734375,22.0539890625,11.7621825734375ZM12.9201290625,13.2124302734375C13.0680990625,13.2417502734375,13.1716890625,13.3590002734375,13.1716890625,13.4615002734375C13.1716890625,13.8276502734375,12.4166890625,14.0767502734375,12.1354390625,13.7983402734375C11.8690390625,13.5200602734375,12.4315390625,13.0952102734375,12.9201290625,13.2124302734375ZM10.2998490625,13.4906802734375C10.2998490625,13.5200602734375,10.285039062500001,13.5787102734375,10.285039062500001,13.6225602734375L10.2702190625,13.6812402734375L10.447819062499999,13.5932402734375C10.9215690625,13.3589602734375,11.380439062499999,13.4028102734375,11.5285390625,13.6957802734375C11.6173190625,13.8716802734375,11.6024990625,13.9742102734375,11.3657190625,15.058120273437499C11.3212890625,15.2485602734375,11.2621290625,15.5123102734375,11.2472890625,15.6440002734375C11.187999062500001,15.9371202734375,11.2324690625,15.922430273437499,10.699539062500001,15.922430273437499C10.2405690625,15.922430273437499,10.2405690625,15.922430273437499,10.2554090625,15.8784302734375C10.2554090625,15.8491202734375,10.314659062499999,15.6148402734375,10.3738490625,15.3364002734375C10.6107190625,14.2964902734375,10.6255690625,14.1499302734375,10.418289062500001,14.1499302734375C10.2998490625,14.1499302734375,10.1369090625,14.2231502734375,10.1222490625,14.2671202734375C10.0926290625,14.369680273437499,9.8260690625,15.6440002734375,9.8112490625,15.761240273437501L9.781719062499999,15.8931202734375L9.3227490625,15.922430273437499C8.760319062499999,15.9371202734375,8.8046290625,15.9809602734375,8.9230690625,15.4829302734375C9.0858790625,14.8383702734375,9.1747890625,14.3843702734375,9.2339690625,13.9741802734375C9.307939062500001,13.5347102734375,9.263599062499999,13.5787102734375,9.6780990625,13.5200602734375C9.8705390625,13.4906802734375,10.0629390625,13.4615002734375,10.1222490625,13.4468402734375C10.2702190625,13.4028102734375,10.2998490625,13.4174602734375,10.2998490625,13.4906802734375ZM17.331489062499998,13.4761802734375C17.331489062499998,13.5053402734375,17.3166890625,13.5640302734375,17.3166890625,13.6079302734375L17.301889062500003,13.6812502734375L17.4795890625,13.5932502734375C18.3973890625,13.124560273437499,18.7525890625,13.5053402734375,18.4861890625,14.7066202734375C18.427089062500002,14.9702502734375,18.3529890625,15.3510902734375,18.308589062499998,15.5269302734375C18.278989062500003,15.7173702734375,18.2344890625,15.8784302734375,18.2197890625,15.893090273437501C18.160489062499998,15.951650273437501,17.287189062499998,15.9371502734375,17.301889062500003,15.893090273437501C17.301889062500003,15.8637802734375,17.3611890625,15.6295002734375,17.4202890625,15.3657502734375C17.6720890625,14.2964902734375,17.6720890625,14.1646202734375,17.449989062500002,14.1646202734375C17.2723890625,14.1646202734375,17.183589062499998,14.2231502734375,17.153989062500003,14.354990273437501C17.1094890625,14.5160902734375,16.8873890625,15.5708102734375,16.8578890625,15.761240273437501L16.8281890625,15.922430273437499L16.369289062500002,15.9371202734375C15.8067890625,15.951650273437501,15.8510890625,16.0103102734375,15.9843890625,15.4682802734375C16.1324890625,14.8823402734375,16.2360890625,14.3403402734375,16.310089062499998,13.9448702734375C16.369289062500002,13.5640302734375,16.3248890625,13.6079302734375,16.6948890625,13.5493702734375C16.8578890625,13.5200602734375,17.0650890625,13.4906802734375,17.1390890625,13.4761802734375C17.287189062499998,13.4028102734375,17.331489062499998,13.4174902734375,17.331489062499998,13.4761802734375ZM26.3173890625,13.4615002734375C26.3764890625,14.354990273437501,26.3913890625,14.6186202734375,26.3913890625,14.6333102734375C26.3913890625,14.6480002734375,26.5245890625,14.4135602734375,26.6725890625,14.120620273437499C26.9685890625,13.5347102734375,26.9094890625,13.5932402734375,27.2351890625,13.5493702734375C27.3239890625,13.5347102734375,27.5015890625,13.5053402734375,27.6348890625,13.4761802734375C27.9605890625,13.4174902734375,27.9605890625,13.3881502734375,27.5903890625,14.0327502734375C27.0870890625,14.8970602734375,26.3913890625,16.1128702734375,26.1396890625,16.5523402734375C25.3847890625,17.914560273437502,25.3847890625,17.914560273437502,24.7481890625,17.929210273437498L24.3632890625,17.9439002734375L24.3928890625,17.8413402734375C24.4076890625,17.782810273437498,24.4520890625,17.6656202734375,24.4668890625,17.577750273437502L24.5112890625,17.416530273437502L24.6296890625,17.416530273437502C24.7629890625,17.416530273437502,24.7924890625,17.3871502734375,24.9109890625,17.1820902734375C24.9553890625,17.1089002734375,25.0293890625,16.9916802734375,25.0589890625,16.918500273437502C25.1033890625,16.8452802734375,25.2514890625,16.6108702734375,25.3698890625,16.3764602734375L25.6067890625,15.9663102734375L25.5474890625,15.4244302734375C25.4735890625,14.7945002734375,25.3847890625,14.0474002734375,25.3402890625,13.8276502734375C25.3105890625,13.622590273437499,25.3105890625,13.622590273437499,25.5771890625,13.5932802734375C25.6955890625,13.5787102734375,25.8880890625,13.5347202734375,25.9916890625,13.5200602734375C26.2728890625,13.432180273437499,26.3024890625,13.432180273437499,26.3173890625,13.4615002734375ZM15.1553890625,13.4761802734375C16.2952890625,13.6812402734375,15.8955890625,15.6440002734375,14.6520990625,15.922430273437499C13.8082490625,16.1128702734375,13.2309990625,15.7905602734375,13.2309990625,15.145960273437499C13.2456890625,14.0180602734375,14.0894990625,13.2856502734375,15.1553890625,13.4761802734375ZM23.6822890625,13.5347102734375C23.7414890625,13.5640302734375,23.8303890625,13.622590273437499,23.8746890625,13.6665902734375C23.9486890625,13.7397802734375,23.9486890625,13.7397802734375,23.9486890625,13.6957802734375C23.9634890625,13.6372402734375,23.9486890625,13.6372402734375,24.5408890625,13.5493702734375C25.0145890625,13.4761802734375,24.9997890625,13.4761802734375,24.9702890625,13.6079302734375C24.7777890625,14.4282102734375,24.6148890625,15.145960273437499,24.5408890625,15.4976202734375C24.4372890625,16.0249902734375,24.5112890625,15.9663102734375,23.9339890625,15.951650273437501L23.4453890625,15.951650273437501L23.4453890625,15.893090273437501C23.4453890625,15.8345602734375,23.4158890625,15.805210273437499,23.3861890625,15.8491202734375C23.2232890625,16.1128702734375,22.4239890625,16.0103102734375,22.2018890625,15.6880302734375C21.6542890625,14.867710273437499,22.8236890625,13.1392102734375,23.6822890625,13.5347102734375ZM13.0532590625,13.9595602734375C13.0532590625,13.9595602734375,13.0532590625,14.0327502734375,13.0384390625,14.0914002734375C12.9201290625,14.5601202734375,12.7128790625,15.5123102734375,12.6683790625,15.6880302734375L12.6239390625,15.9077802734375L12.1354390625,15.922430273437499C11.5581890625,15.9371202734375,11.5876890625,15.9663102734375,11.7061290625,15.6148402734375C11.8097590625,15.2778702734375,11.913409062500001,14.867710273437499,11.972689062499999,14.4282102734375C12.0318190625,14.0474002734375,11.972689062499999,14.105930273437501,12.4020090625,14.0474002734375C12.594409062499999,14.0180202734375,12.8016890625,13.9888702734375,12.8460090625,13.9742102734375C12.9644390625,13.9448702734375,13.0384390625,13.9448702734375,13.0532590625,13.9595602734375ZM15.6438890625,16.9916802734375C15.6438890625,17.0063702734375,15.6143890625,17.0650602734375,15.5698890625,17.1382502734375C15.5401890625,17.2114302734375,15.4959890625,17.2701202734375,15.4959890625,17.2701202734375C16.369289062500002,17.2846202734375,16.3988890625,17.2846202734375,16.3840890625,17.3286502734375L16.2212890625,17.8560302734375L14.9481590625,17.8560302734375L14.8741890625,17.914560273437502C14.7112590625,18.0610902734375,13.8527590625,18.2515002734375,13.8527590625,18.1342802734375L14.0155690625,17.6069302734375L14.1339690625,17.6069302734375C14.3412190625,17.6069302734375,14.3855390625,17.5630602734375,14.5632890625,17.2554702734375L14.7112590625,16.9770302734375C15.4810890625,16.9625002734375,15.6438890625,16.9770302734375,15.6438890625,16.9916802734375ZM17.5832890625,16.9916802734375C17.5832890625,17.0063702734375,17.5683890625,17.0795602734375,17.5387890625,17.1675902734375C17.5090890625,17.2407802734375,17.4944890625,17.3140002734375,17.4944890625,17.3286502734375C17.4944890625,17.3286502734375,17.5683890625,17.2992802734375,17.657189062500002,17.2261502734375C17.9828890625,17.0063702734375,18.2640890625,16.9624902734375,19.0930890625,16.9624902734375C19.4188890625,16.9624902734375,19.7000890625,16.9624902734375,19.7148890625,16.9770302734375C19.7296890625,17.0063702734375,19.2412890625,18.5884302734375,19.1670890625,18.7348402734375C19.0634890625,18.9254002734375,18.9598890625,19.027930273437498,18.7970890625,19.101120273437502L18.6489890625,19.159680273437502L17.8052890625,19.1743702734375L16.9614890625,19.1890002734375L16.8133890625,19.6870302734375C16.5173890625,20.6392102734375,16.5173890625,20.566020273437502,16.9466890625,20.5220302734375C17.287189062499998,20.492650273437498,17.2723890625,20.4634902734375,17.1687890625,20.8149602734375L17.079989062499997,21.1079302734375L16.6505890625,21.1079302734375C15.7179890625,21.122620273437498,15.5995890625,21.064060273437498,15.6883890625,20.683120273437503C15.7327890625,20.4926802734375,16.7985890625,17.0063702734375,16.8133890625,16.9770302734375C16.8281890625,16.9624902734375,17.5832890625,16.9624902734375,17.5832890625,16.9916802734375ZM21.4764890625,16.9916802734375C21.4764890625,17.0063702734375,21.4616890625,17.0503402734375,21.4469890625,17.1088702734375C21.4024890625,17.2554302734375,21.4024890625,17.2554302734375,21.5949890625,17.152930273437498C21.8466890625,17.0210302734375,22.4387890625,16.9770302734375,23.6525890625,16.9770302734375L24.0375890625,16.9770302734375L24.0375890625,17.152930273437498C24.0375890625,17.3580002734375,24.0524890625,17.372620273437498,24.2300890625,17.4018702734375L24.3632890625,17.416530273437502L24.2891890625,17.6802802734375L24.2152890625,17.9438702734375L23.9486890625,17.9438702734375C23.2677890625,17.9585602734375,23.1641890625,17.8853402734375,23.1492890625,17.4898702734375L23.1492890625,17.2993102734375L23.1049890625,17.431180273437498L23.0604890625,17.577750273437502L22.9124890625,17.577750273437502C22.8384890625,17.577750273437502,22.7644890625,17.577750273437502,22.7644890625,17.5924302734375C22.7644890625,17.5924302734375,22.0390890625,19.9799602734375,21.9354890625,20.3169302734375C21.9206890625,20.3463102734375,21.9354890625,20.3609602734375,22.0242890625,20.3609602734375C22.1575890625,20.3609602734375,22.1575890625,20.3609602734375,22.1130890625,20.4780002734375C22.0687890625,20.6099002734375,22.0687890625,20.6099002734375,22.2166890625,20.6099002734375C22.3203890625,20.6099002734375,22.3796890625,20.5952102734375,22.4535890625,20.5513702734375C22.5572890625,20.4926902734375,22.5572890625,20.507370273437502,23.0308890625,19.8482502734375L23.2232890625,19.5698402734375L22.8235890625,19.5698402734375C22.3351890625,19.5698402734375,22.3796890625,19.5991802734375,22.4684890625,19.3062502734375L22.5423890625,19.0718102734375L23.5194890625,19.0718102734375C23.6082890625,18.7641902734375,23.6377890625,18.6763102734375,23.6377890625,18.661650273437502C23.6377890625,18.6469702734375,23.4305890625,18.6469702734375,23.1641890625,18.6469702734375L22.6904890625,18.6469702734375L22.8384890625,18.119620273437498L24.1707890625,18.119620273437498C24.8960890625,18.119620273437498,25.5031890625,18.119620273437498,25.5031890625,18.1343102734375C25.5031890625,18.1489702734375,25.4735890625,18.266190273437502,25.4290890625,18.3980602734375L25.3550890625,18.6470002734375L24.9109890625,18.661650273437502L24.4668890625,18.6763102734375C24.3928890625,18.8960602734375,24.3632890625,18.9985902734375,24.3484890625,19.027930273437498L24.3336890625,19.0864702734375L24.7629890625,19.0864702734375C25.2662890625,19.0864702734375,25.2366890625,19.0571502734375,25.1329890625,19.3500902734375L25.0589890625,19.5845002734375L24.0819890625,19.5845002734375L23.9339890625,19.7602502734375L24.3188890625,19.7602502734375L24.3779890625,20.1118702734375C24.4372890625,20.507370273437502,24.4372890625,20.507370273437502,24.6296890625,20.507370273437502C24.7778890625,20.507370273437502,24.7778890625,20.4780002734375,24.6741890625,20.8296202734375L24.5852890625,21.122590273437503L24.3039890625,21.122590273437503C23.8155890625,21.122590273437503,23.7267890625,21.0494002734375,23.6377890625,20.5513402734375L23.5934890625,20.2290602734375L23.4158890625,20.4635002734375C22.9272890625,21.122590273437503,22.8977890625,21.137250273437502,22.2759890625,21.137250273437502C21.8761890625,21.137250273437502,21.8761890625,21.137250273437502,21.9354890625,21.0200602734375C21.9502890625,20.9615302734375,21.9502890625,20.9615302734375,21.8318890625,20.9615302734375C21.7133890625,20.9615302734375,21.7133890625,20.9615302734375,21.6837890625,21.049410273437502L21.6689890625,21.137250273437502L20.839989062500003,21.137250273437502L20.8547890625,21.093250273437498C20.8992890625,20.9468802734375,20.973189062499998,20.9615302734375,20.0701890625,20.9615302734375C19.2855890625,20.9615302734375,19.2412890625,20.9615302734375,19.2560890625,20.9175002734375L19.3300890625,20.6539102734375C19.4188890625,20.390160273437502,19.403989062500003,20.390160273437502,19.492889062499998,20.390160273437502C19.5668890625,20.390160273437502,19.5668890625,20.390160273437502,19.596489062499998,20.2876302734375C20.2922890625,17.9878802734375,20.5143890625,17.2554402734375,20.5438890625,17.1529402734375L20.6031890625,16.9625002734375L21.0176890625,16.9625002734375C21.2840890625,16.9625002734375,21.4764890625,16.9770302734375,21.4764890625,16.9916802734375ZM16.2212890625,18.2515002734375L16.058389062499998,18.7641802734375L15.1702890625,18.7641802734375C15.0814890625,19.0571502734375,15.0518190625,19.1450302734375,15.0369390625,19.1743402734375C15.0221290625,19.2183702734375,15.0517890625,19.2183702734375,15.4810890625,19.2183702734375C15.7327890625,19.2183702734375,15.9400890625,19.233060273437502,15.9400890625,19.233060273437502C15.9400890625,19.2475602734375,15.9252890625,19.2768702734375,15.9103890625,19.3208702734375C15.8955890625,19.3500902734375,15.8659890625,19.467310273437498,15.8364890625,19.5845002734375L15.7771890625,19.774900273437503L14.8593190625,19.774900273437503L14.7556890625,20.1265302734375C14.6076290625,20.624560273437503,14.6224390625,20.6392102734375,15.1849890625,20.566030273437498C15.4218890625,20.5366802734375,15.4070890625,20.507370273437502,15.3034890625,20.859000273437502L15.2146890625,21.1519302734375L14.5927790625,21.1519302734375C13.6158190625,21.1519302734375,13.6009990625,21.122590273437503,13.8674090625,20.2876202734375C13.9415290625,20.0240002734375,14.0155390625,19.8042402734375,14.0155390625,19.8042402734375C14.0155390625,19.8042402734375,13.9118790625,19.789560273437502,13.7637890625,19.789560273437502C13.6306590625,19.789560273437502,13.5122190625,19.789560273437502,13.5122190625,19.774900273437503C13.6158190625,19.4087802734375,13.6601590625,19.291530273437502,13.6601590625,19.2622102734375C13.6749690625,19.2330302734375,13.7046290625,19.2183702734375,13.9267190625,19.2183702734375L14.1782790625,19.2183702734375L14.2967190625,18.7641802734375L14.0599690625,18.7641802734375C13.8822190625,18.7641802734375,13.8230990625,18.7641802734375,13.8230990625,18.7348402734375C13.8230990625,18.7056802734375,13.9563490625,18.280840273437498,13.9709990625,18.2368102734375C14.0006890625,18.2076502734375,16.2360890625,18.2221502734375,16.2212890625,18.2515002734375ZM19.093189062500002,19.3062402734375C19.093189062500002,19.3355602734375,19.0634890625,19.4234302734375,19.0487890625,19.4966502734375C18.9598890625,19.9068102734375,18.8415890625,19.994680273437503,18.3677890625,20.0240002734375C18.204989062499997,20.0386802734375,18.056889062499998,20.0533102734375,18.056889062499998,20.0533102734375C18.0272890625,20.0972102734375,18.0272890625,20.4488402734375,18.056889062499998,20.507370273437502L18.101389062499997,20.566030273437498L18.3973890625,20.5513402734375C18.5601890625,20.5366802734375,18.6934890625,20.5366802734375,18.6934890625,20.5366802734375C18.6934890625,20.566030273437498,18.530689062500002,21.0787202734375,18.5158890625,21.093250273437498C18.4861890625,21.122620273437498,17.5832890625,21.1079302734375,17.4647890625,21.064060273437498C17.287189062499998,21.0053702734375,17.287189062499998,21.0200302734375,17.301889062500003,20.097180273437502L17.3166890625,19.2915602734375L18.0716890625,19.2915602734375L18.0716890625,19.5991802734375L18.219889062500002,19.5991802734375C18.3825890625,19.5991802734375,18.3973890625,19.5845002734375,18.471389062500002,19.3794002734375L18.5158890625,19.2622202734375L18.8119890625,19.2622202734375C19.078289062499998,19.276900273437498,19.1079890625,19.276900273437498,19.093189062500002,19.3062402734375ZM20.4846890625,13.0366802734375L20.321789062500002,13.7398102734375L20.5438890625,13.7398102734375C21.6837890625,13.7691202734375,22.1575890625,12.4653072734375,21.0471890625,12.3774312734375C20.869589062499998,12.3627442734375,20.7067890625,12.3480882734375,20.6919890625,12.3480882734375C20.6474890625,12.3480882734375,20.6474890625,12.3921512734375,20.4846890625,13.0366802734375ZM14.5927790625,14.0327402734375C14.3115690625,14.1499302734375,14.0451590625,15.204650273437501,14.2672490625,15.365740273437499C14.4299990625,15.4976202734375,14.6669390625,15.2778702734375,14.7853790625,14.9117102734375C14.9778190625,14.2378102734375,14.9184990625,13.9155302734375,14.5927790625,14.0327402734375ZM23.4158890625,14.105930273437501C23.1196890625,14.2524902734375,22.8977890625,15.2925302734375,23.1196890625,15.4097102734375C23.4158890625,15.5708102734375,23.8007890625,15.0142802734375,23.8007890625,14.4135602734375C23.8007890625,14.1352802734375,23.6377890625,14.0034002734375,23.4158890625,14.105930273437501ZM17.4351890625,17.592400273437498L17.3611890625,17.8560302734375C17.3166890625,17.9879002734375,17.287189062499998,18.1050902734375,17.2723890625,18.119620273437498C17.2723890625,18.1343102734375,17.346389062500002,18.1050902734375,17.449989062500002,18.0464002734375C17.7459890625,17.8999902734375,17.8348890625,17.8706802734375,18.2640890625,17.8560302734375L18.634289062500002,17.8413402734375C18.6934890625,17.6656202734375,18.7082890625,17.592400273437498,18.7082890625,17.577750273437502C18.7230890625,17.5630602734375,17.449989062500002,17.5630602734375,17.4351890625,17.592400273437498ZM17.183589062499998,18.4419302734375L17.1242890625,18.6763102734375L18.3973890625,18.6616202734375L18.471389062500002,18.427240273437498C17.4647890625,18.427240273437498,17.183589062499998,18.427240273437498,17.183589062499998,18.4419302734375ZM21.2100890625,17.914560273437502C21.1508890625,18.1050902734375,21.1064890625,18.2514902734375,21.1212890625,18.2514902734375L21.2988890625,18.1929602734375C21.3876890625,18.1635902734375,21.5505890625,18.119620273437498,21.6394890625,18.1050902734375C21.7281890625,18.090430273437498,21.8021890625,18.0757102734375,21.8169890625,18.0757102734375C21.8169890625,18.0757102734375,21.9651890625,17.621590273437498,21.9651890625,17.6069302734375C21.9651890625,17.6069302734375,21.8169890625,17.592400273437498,21.6394890625,17.592400273437498L21.3136890625,17.592400273437498L21.2100890625,17.914560273437502ZM20.973189062499998,18.661650273437502C20.973189062499998,18.6763102734375,20.9140890625,18.822870273437502,20.869589062499998,18.9985902734375C20.8104890625,19.1743402734375,20.765989062499997,19.3355602734375,20.765989062499997,19.3355602734375C20.765989062499997,19.3500902734375,20.839989062500003,19.3208702734375,20.9435890625,19.2768702734375C21.0471890625,19.2330202734375,21.1952890625,19.1889902734375,21.2840890625,19.1743702734375C21.4764890625,19.1449902734375,21.4912890625,19.130490273437502,21.5061890625,19.0571502734375C21.5209890625,19.027930273437498,21.5505890625,18.9107402734375,21.5800890625,18.822870273437502L21.6394890625,18.6469902734375L21.3136890625,18.6469902734375C21.1360890625,18.6469902734375,20.973189062499998,18.6469902734375,20.973189062499998,18.661650273437502L20.973189062499998,18.661650273437502ZM20.4550890625,20.3462802734375L21.1064890625,20.3609602734375C21.2397890625,19.9214602734375,21.2840890625,19.774900273437503,21.2840890625,19.7602402734375L20.6326890625,19.7310602734375L20.4550890625,20.3462802734375Z" fill="#FFFFFF" fill-opacity="1" style="mix-blend-mode:passthrough"/></g></g></svg>