<svg xmlns="http://www.w3.org/2000/svg" width="18" height="18" viewBox="0 0 18 18" fill="none">
  <path fill-rule="evenodd" clip-rule="evenodd"
    d="M9 17C13.4183 17 17 13.4183 17 9C17 4.58172 13.4183 1 9 1C4.58172 1 1 4.58172 1 9C1 13.4183 4.58172 17 9 17ZM9 18C13.9706 18 18 13.9706 18 9C18 4.02944 13.9706 0 9 0C4.02944 0 0 4.02944 0 9C0 13.9706 4.02944 18 9 18Z"
    fill="#878A99" />
  <path
    d="M12 8.13398C12.6667 8.51888 12.6667 9.48113 12 9.86603L8.25 12.0311C7.58333 12.416 6.75 11.9349 6.75 11.1651L6.75 6.83493C6.75 6.06513 7.58333 5.58401 8.25 5.96891L12 8.13398Z"
    fill="#878A99" />
</svg>
