<svg xmlns="http://www.w3.org/2000/svg" width="18" height="17" viewBox="0 0 18 17" fill="none">
  <path
    d="M17.8089 14.8534L10.112 1.52217H10.1109C10.015 1.16674 9.57631 0.899902 9.04905 0.899902C8.51441 0.899902 8.07469 1.17096 7.984 1.53271L0.10682 15.1761L0.114201 15.1845C-0.0671743 15.3638 -0.031321 15.7878 0.213325 16.1833C0.457971 16.5873 0.828103 16.8119 1.06748 16.7191L1.07697 16.7339H17.0201L17.0317 16.7128C17.2974 16.7539 17.6243 16.5208 17.8299 16.1032C18.0683 15.6233 18.0514 15.0864 17.8089 14.8534ZM7.93338 5.71348C7.9421 5.43607 8.05841 5.17294 8.25769 4.9798C8.45697 4.78665 8.72357 4.67865 9.00107 4.67865C9.27857 4.67865 9.54518 4.78665 9.74446 4.9798C9.94374 5.17294 10.06 5.43607 10.0688 5.71348V11.221C10.0688 11.5044 9.95622 11.7761 9.75589 11.9765C9.55556 12.1769 9.28385 12.2894 9.00054 12.2894C8.71724 12.2894 8.44553 12.1769 8.2452 11.9765C8.04487 11.7761 7.93233 11.5044 7.93233 11.221V5.71348H7.93338ZM8.99949 15.3248C8.69157 15.3248 8.39626 15.2025 8.17853 14.9847C7.9608 14.7669 7.83848 14.4716 7.83848 14.1636C7.83848 13.8556 7.9608 13.5603 8.17853 13.3425C8.39626 13.1247 8.69157 13.0024 8.99949 13.0024C9.30741 13.0024 9.60272 13.1247 9.82045 13.3425C10.0382 13.5603 10.1605 13.8556 10.1605 14.1636C10.1605 14.4716 10.0382 14.7669 9.82045 14.9847C9.60272 15.2025 9.30741 15.3248 8.99949 15.3248Z"
    fill="#F06548" />
</svg>
