<svg xmlns="http://www.w3.org/2000/svg" xmlns:xlink="http://www.w3.org/1999/xlink" fill="none" version="1.1" width="55" height="48" viewBox="0 0 55 48"><g transform="matrix(1,-7.436429250162746e-9,7.436429250162746e-9,1,1.3616508636772606e-12,0)"><g><path d="M50.11626006958008,31.99994605286592C46.77669506958008,41.32149705286592,37.765678069580076,47.999971052865924,27.17356906958008,47.999971052865924C16.581459069580077,47.999971052865924,7.570441269580078,41.32149705286592,4.230877037433078,31.99994605286592L5.732880469580078,31.99994605286592C9.007719469580078,40.53801905286592,17.372048069580078,46.60866305286592,27.17356906958008,46.60866305286592C36.975082069580075,46.60866305286592,45.339413069580075,40.53801905286592,48.61425006958008,31.99994605286592L50.11626006958008,31.99994605286592ZM49.85459106958008,15.30429605286592C46.32410406958008,6.34793885286592,37.500259069580075,-0.000024947134079411626,27.17356906958008,-0.000024947134079411626C16.84687806958008,-0.000024947134079411626,8.023034069580078,6.34793885286592,4.4925467995800785,15.30429605286592L6.013250569580078,15.30429605286592C9.466833069580078,7.13404255286592,17.640417069580078,1.3912791528659205,27.17356906958008,1.3912791528659205C36.70671506958008,1.3912791528659205,44.880299069580076,7.13404255286592,48.33388106958008,15.30429605286592L49.85459106958008,15.30429605286592Z" fill-rule="evenodd" fill="#CFD2E1" fill-opacity="1"/></g><g><path d="M40.43146656622314,31.999887107910155C37.743332566223145,36.181108107910156,33.01012156622315,38.95641310791015,27.619873566223145,38.95641310791015C22.229625266223145,38.95641310791015,17.496413966223145,36.181108107910156,14.808281588808144,31.999887107910155L16.514329166223146,31.999887107910155C19.015645466223145,35.373747107910155,23.058363866223146,37.56510910791016,27.619873566223145,37.56510910791016C32.181384566223144,37.56510910791016,36.224102566223145,35.373747107910155,38.72542056622314,31.999887107910155L40.43146656622314,31.999887107910155ZM39.956017566223146,15.304237407910156C37.20586456622314,11.513643007910156,32.70527956622314,9.043373107910156,27.619873566223145,9.043373107910156C22.534467266223146,9.043373107910156,18.033883066223144,11.513643007910156,15.283730536223144,15.304237407910156L17.066046666223144,15.304237407910156C19.588311166223143,12.327917307910155,23.379985766223143,10.434677207910156,27.619873566223145,10.434677207910156C31.859761566223145,10.434677207910156,35.65143656622314,12.327917307910155,38.17370356622314,15.304237407910156L39.956017566223146,15.304237407910156Z" fill-rule="evenodd" fill="#CFD2E1" fill-opacity="1"/></g><g><path d="M0,29.217203940856933L0,18.086771740856932C0,16.934177990856934,0.94708997,15.999815940856934,2.1153848,15.999815940856934L52.884624,15.999815940856934C54.052914,15.999815940856934,55.000004,16.934177990856934,55.000004,18.086771740856932L55.000004,29.217203940856933C55.000004,30.369799940856936,54.052914,31.30416094085693,52.884624,31.30416094085693L2.1153848,31.30416094085693C0.94708997,31.30416094085693,0,30.369799940856936,0,29.217203940856933ZM1.4102565,29.217203940856933Q1.4102565,29.912855940856936,2.1153848,29.912855940856936L52.884624,29.912855940856936Q53.589748,29.912855940856936,53.589748,29.217203940856933L53.589748,18.086771740856932Q53.589748,17.391119940856935,52.884624,17.391119940856935L2.1153848,17.391119940856935Q1.4102565,17.391119940856935,1.4102565,18.086771740856932L1.4102565,29.217203940856933Z" fill-rule="evenodd" fill="#CFD2E1" fill-opacity="1"/></g><g><path d="M26.79487393574219,2.7824251651763916L27.55315373574219,4.007061565176391L28.91025873574219,4.3767176651763915L28.021797135742187,5.503240865176392L28.10225323574219,6.956337665176392L26.79487393574219,6.4279310651763915L25.48749434574219,6.956337665176392L25.567950425742186,5.503240865176392L24.679489135742188,4.3767176651763915L26.036593435742187,4.007061565176391L26.79487393574219,2.7824251651763916Z" fill="#CFD2E1" fill-opacity="1"/></g><g transform="matrix(1,0,0,-1,0,91.82571411132812)"><path d="M26.79487393574219,45.91285705566406L27.55315373574219,47.137493455664064L28.91025873574219,47.507149555664064L28.021797135742187,48.633672755664065L28.10225323574219,50.08676955566406L26.79487393574219,49.558362955664066L25.48749434574219,50.08676955566406L25.567950425742186,48.633672755664065L24.679489135742188,47.507149555664064L26.036593435742187,47.137493455664064L26.79487393574219,45.91285705566406Z" fill="#CFD2E1" fill-opacity="1"/></g><g transform="matrix(0.9411634802818298,-0.3379516303539276,0.3461246192455292,0.9381886124610901,-1.2127698594816536,5.867863960043849)"><path d="M18.33002781357422,6.260685920715332L19.087122413574217,7.487285520715332L20.44210621357422,7.857534120715332L19.55503341357422,8.985863220715332L19.63536381357422,10.441289420715332L18.33002781357422,9.912035720715332L17.02469134357422,10.441289420715332L17.105021713574217,8.985863220715332L16.21794891357422,7.857534120715332L17.57293221357422,7.487285520715332L18.33002781357422,6.260685920715332Z" fill="#CFD2E1" fill-opacity="1"/></g><g transform="matrix(0.9411634802818298,0.3379516303539276,0.3461246192455292,-0.9381886124610901,-13.974232029799737,78.1136678398957)"><path d="M18.33002781357422,43.130245208740234L19.087122413574217,44.356844808740234L20.44210621357422,44.72709340874023L19.55503341357422,45.85542250874023L19.63536381357422,47.31084870874024L18.33002781357422,46.78159500874023L17.02469134357422,47.31084870874024L17.105021713574217,45.85542250874023L16.21794891357422,44.72709340874023L17.57293221357422,44.356844808740234L18.33002781357422,43.130245208740234Z" fill="#CFD2E1" fill-opacity="1"/></g><g transform="matrix(-0.9411634802818298,-0.3379516303539276,-0.3461246192455292,0.9381886124610901,76.0805180235096,13.255141304763072)"><path d="M40.189006085058594,6.260685920715332L40.946100685058596,7.487285520715332L42.301084485058595,7.857534120715332L41.4140116850586,8.985863220715332L41.49434208505859,10.441289420715332L40.189006085058594,9.912035720715332L38.883669615058594,10.441289420715332L38.96399998505859,8.985863220715332L38.076927185058594,7.857534120715332L39.431910485058594,7.487285520715332L40.189006085058594,6.260685920715332Z" fill="#CFD2E1" fill-opacity="1"/></g><g transform="matrix(-0.9411634802818298,0.3379516303539276,-0.3461246192455292,-0.9381886124610901,88.84198019382768,70.72639049517647)"><path d="M40.189006085058594,43.130245208740234L40.946100685058596,44.356844808740234L42.301084485058595,44.72709340874023L41.4140116850586,45.85542250874023L41.49434208505859,47.31084870874024L40.189006085058594,46.78159500874023L38.883669615058594,47.31084870874024L38.96399998505859,45.85542250874023L38.076927185058594,44.72709340874023L39.431910485058594,44.356844808740234L40.189006085058594,43.130245208740234Z" fill="#CFD2E1" fill-opacity="1"/></g><g><path d="M20.308493640100096,25.7883844032959Q20.2691621401001,26.3685160032959,20.190501240100097,26.7618246032959Q20.0823412401001,27.341955203295896,19.925017340100098,27.6271050032959Q19.767693540100097,27.9122530032959,19.4481296401001,28.0351630032959Q19.128566740100098,28.1580720032959,18.4992723401001,28.187570003295896Q17.250515940100097,28.236733003295896,16.286909140100096,28.236733003295896Q15.392130840100098,28.236733003295896,14.241702340100098,28.187570003295896Q13.592742440100098,28.1580720032959,13.253513340100097,28.010581003295897Q12.914284340100098,27.8630900032959,12.766793440100098,27.5238610032959Q12.619302640100099,27.184631303295898,12.619302640100099,26.5356722032959L12.619302640100099,21.9044585032959L13.661571540100098,21.943789503295896L13.661571540100098,23.104051103295898L18.4107775401001,23.104051103295898L18.4107775401001,21.0293460032959L12.393149940100098,21.0293460032959L12.393149940100098,20.006742503295897L19.433381040100098,20.006742503295897L19.433381040100098,24.0873232032959L13.661571540100098,24.0873232032959L13.661571540100098,26.270188303295896Q13.661571540100098,26.6634970032959,13.730400540100097,26.845402703295896Q13.799229640100098,27.0273085032959,13.981135140100097,27.0961370032959Q14.163040440100097,27.1649666032959,14.576015040100097,27.184631303295898Q15.588785640100099,27.233795203295898,16.3852362401001,27.233795203295898Q17.1816868401001,27.233795203295898,18.194457540100096,27.184631303295898Q18.607431840100098,27.155133203295897,18.794253840100097,27.0961370032959Q18.981075740100096,27.037140803295898,19.0646538401001,26.884733203295898Q19.148231940100096,26.732326503295898,19.197395840100096,26.388180703295898Q19.276057240100098,25.906377803295896,19.285890540100098,25.4540720032959L20.308493640100096,25.7883844032959ZM28.233670040100098,24.1561527032959L31.330979040100097,24.1561527032959L31.330979040100097,24.9034395032959L23.9859330401001,24.9034395032959L23.9859330401001,22.405927703295898Q23.6516200401001,22.828734403295897,23.277977040100097,23.202378303295898L22.747010040100097,22.3174329032959Q23.277977040100097,21.894625703295898,23.8482750401001,21.0244298032959Q24.4185730401001,20.1542335032959,24.723388040100097,19.3479500032959L25.627998040100096,19.6625972032959Q25.4116780401001,20.1345682032959,25.293685040100097,20.3607206032959L27.407721040100096,20.3607206032959Q27.319226040100098,20.065739203295898,27.142238040100096,19.534771903295898L28.0468490401001,19.416779003295897Q28.233670040100098,19.908415303295897,28.381162040100097,20.3607206032959L31.114659040100097,20.3607206032959L31.114659040100097,21.1178403032959L28.233670040100098,21.1178403032959L28.233670040100098,21.6684732032959L30.898339040100097,21.6684732032959L30.898339040100097,22.366596703295897L28.233670040100098,22.366596703295897L28.233670040100098,22.917229203295896L30.898339040100097,22.917229203295896L30.898339040100097,23.5956869032959L28.233670040100098,23.5956869032959L28.233670040100098,24.1561527032959ZM24.9593720401001,21.6684732032959L27.2798960401001,21.6684732032959L27.2798960401001,21.1178403032959L24.9593720401001,21.1178403032959L24.9593720401001,21.6684732032959ZM24.9593720401001,22.917229203295896L27.2798960401001,22.917229203295896L27.2798960401001,22.366596703295897L24.9593720401001,22.366596703295897L24.9593720401001,22.917229203295896ZM27.2798960401001,23.5956869032959L24.9593720401001,23.5956869032959L24.9593720401001,24.1561527032959L27.2798960401001,24.1561527032959L27.2798960401001,23.5956869032959ZM24.9003760401001,28.325228003295898L23.9072710401001,28.325228003295898L23.9072710401001,25.404908203295896L30.583692040100097,25.404908203295896L30.583692040100097,28.325228003295898L29.620084040100096,28.325228003295898L29.620084040100096,27.9024210032959L24.9003760401001,27.9024210032959L24.9003760401001,28.325228003295898ZM29.620084040100096,27.1649666032959L29.620084040100096,26.191526403295896L24.9003760401001,26.191526403295896L24.9003760401001,27.1649666032959L29.620084040100096,27.1649666032959ZM34.506949040100096,21.1178403032959L36.0211880401001,21.1178403032959L36.0211880401001,20.6753678032959L34.1431380401001,20.6753678032959L34.1431380401001,20.006742503295897L36.0211880401001,20.006742503295897L36.0211880401001,19.4069462032959L36.876636040100095,19.4462771032959L36.876636040100095,20.006742503295897L38.6071960401001,20.006742503295897L38.6071960401001,20.6753678032959L36.876636040100095,20.6753678032959L36.876636040100095,21.1178403032959L38.361377040100095,21.1178403032959L38.361377040100095,21.7373023032959L34.506949040100096,21.7373023032959L34.506949040100096,21.1178403032959ZM35.264070040100094,23.7530107032959Q35.205073040100096,24.1168213032959,35.0280830401001,24.4363852032959Q34.851094040100094,24.7559490032959,34.4676180401001,25.2377520032959L33.808825040100096,24.8247776032959Q34.2611300401001,24.2741451032959,34.4135390401001,23.8857527032959Q34.5659460401001,23.497360203295898,34.5659460401001,22.907396303295897L34.5659460401001,22.0814476032959L38.2925480401001,22.0814476032959L38.2925480401001,23.6743488032959Q39.0496680401001,23.497360203295898,39.6494650401001,23.2908726032959Q39.1873250401001,22.917229203295896,38.7448530401001,22.3174329032959L38.617028040100095,22.3174329032959L38.617028040100095,21.6684732032959L38.96117304010009,21.6684732032959L38.4793710401001,21.1080079032959Q38.7841840401001,20.921186003295897,38.9120110401001,20.724531603295897Q39.0398360401001,20.527876903295898,39.0398360401001,20.1935644032959L39.0398360401001,19.731426203295896L41.6651730401001,19.731426203295896L41.6651730401001,20.409884403295898Q41.6651730401001,20.6163716032959,41.70450304010009,20.6802840032959Q41.7438340401001,20.744196903295897,41.9011580401001,20.744196903295897L42.5402840401001,20.744196903295897L42.4026270401001,21.4226551032959L41.5668460401001,21.4226551032959Q41.1932020401001,21.4226551032959,41.050628040100094,21.2751641032959Q40.9080530401001,21.127673103295898,40.9080530401001,20.7933607032959L40.9080530401001,20.429549703295898L39.7772890401001,20.429549703295898L39.7772890401001,20.5770407032959Q39.7772890401001,21.1473389032959,38.990672040100094,21.6684732032959L42.1863070401001,21.6684732032959L42.1863070401001,22.3469310032959Q41.7241700401001,22.907396303295897,41.0850420401001,23.3203707032959Q41.6651730401001,23.5465236032959,42.7566040401001,23.7530107032959L42.500955040100095,24.4806323032959Q41.645509040100094,24.2348146032959,41.1833700401001,24.0824070032959Q40.721230040100096,23.9299998032959,40.337754040100094,23.7333450032959Q39.5118050401001,24.126654603295897,38.32204504010009,24.4216361032959L38.0663960401001,23.7530107032959L35.264070040100094,23.7530107032959ZM39.6789640401001,22.3174329032959Q39.9936090401001,22.691076303295898,40.3967520401001,22.9663930032959Q40.9473850401001,22.6812439032959,41.2718630401001,22.3174329032959L39.6789640401001,22.3174329032959ZM36.0801860401001,23.1335492032959L36.0801860401001,22.6615782032959L35.303399040100096,22.6615782032959L35.303399040100096,23.1335492032959L36.0801860401001,23.1335492032959ZM36.7979750401001,23.1335492032959L37.545260040100096,23.1335492032959L37.545260040100096,22.6615782032959L36.7979750401001,22.6615782032959L36.7979750401001,23.1335492032959ZM38.7743520401001,25.267250503295898L38.7743520401001,25.857214003295898L42.589448040100095,25.857214003295898L42.589448040100095,26.6045008032959L38.7743520401001,26.6045008032959L38.7743520401001,27.4206170032959L40.721230040100096,27.4206170032959L40.721230040100096,26.8306541032959L41.5963450401001,26.869984603295897L41.5963450401001,28.492384003295896L40.721230040100096,28.492384003295896L40.721230040100096,28.197403003295896L35.0772470401001,28.197403003295896L35.0772470401001,26.8306541032959L35.9523590401001,26.869984603295897L35.9523590401001,27.4206170032959L37.889407040100096,27.4206170032959L37.889407040100096,26.6045008032959L34.0841420401001,26.6045008032959L34.0841420401001,25.857214003295898L35.6967100401001,25.857214003295898L35.1264100401001,25.4245739032959Q35.7163740401001,24.785447103295898,36.139182040100096,23.900501703295898L36.8864680401001,24.1758180032959Q36.8176390401001,24.333141303295896,36.7094790401001,24.5396290032959L41.5275140401001,24.5396290032959L41.5275140401001,25.267250503295898L38.7743520401001,25.267250503295898ZM37.889407040100096,25.857214003295898L37.889407040100096,25.267250503295898L36.2571740401001,25.267250503295898Q36.0801860401001,25.5229015032959,35.7852030401001,25.857214003295898L37.889407040100096,25.857214003295898Z" fill="#CFD2E1" fill-opacity="1"/></g></g></svg>