<svg xmlns="http://www.w3.org/2000/svg" width="18" height="18" viewBox="0 0 18 18" fill="none">
    <path d="M5.0625 9.5625V8.4375H12.9375V9.5625H5.0625Z" fill="#D54941" />
    <path
        d="M16.875 9C16.875 13.3492 13.3492 16.875 9 16.875C4.65076 16.875 1.125 13.3492 1.125 9C1.125 4.65076 4.65076 1.125 9 1.125C13.3492 1.125 16.875 4.65076 16.875 9ZM15.75 9C15.75 5.27208 12.7279 2.25 9 2.25C5.27208 2.25 2.25 5.27208 2.25 9C2.25 12.7279 5.27208 15.75 9 15.75C12.7279 15.75 15.75 12.7279 15.75 9Z"
        fill="#D54941" />
</svg>
