<svg xmlns="http://www.w3.org/2000/svg" width="17" height="17" viewBox="0 0 17 17" fill="none">
  <path
    d="M15.0426 4.22364C15.1381 4.38901 15.164 4.58554 15.1145 4.76999C15.0651 4.95444 14.9445 5.1117 14.7791 5.20718L12.9085 6.28717C12.7431 6.38265 12.5466 6.40852 12.3621 6.3591C12.1777 6.30968 12.0204 6.18901 11.9249 6.02363C11.8295 5.85826 11.8036 5.66173 11.853 5.47728C11.9024 5.29284 12.0231 5.13557 12.1885 5.0401L14.0591 3.9601C14.2245 3.86462 14.421 3.83875 14.6054 3.88817C14.7899 3.93759 14.9471 4.05826 15.0426 4.22364Z"
    fill="#878A99" />
  <path opacity="0.9"
    d="M16.1039 8.18361C16.1039 8.37456 16.028 8.55768 15.893 8.69271C15.7579 8.82773 15.5748 8.90358 15.3839 8.90358L13.2236 8.90373C13.1286 8.90436 13.0345 8.8862 12.9466 8.8503C12.8587 8.8144 12.7788 8.76147 12.7114 8.69455C12.644 8.62763 12.5906 8.54804 12.5541 8.46038C12.5176 8.37271 12.4988 8.2787 12.4988 8.18374C12.4988 8.08879 12.5176 7.99477 12.5541 7.90711C12.5906 7.81944 12.6441 7.73986 12.7114 7.67294C12.7788 7.60602 12.8587 7.55309 12.9466 7.51719C13.0345 7.48129 13.1287 7.46314 13.2236 7.46377L15.3839 7.46361C15.5748 7.46362 15.758 7.53948 15.893 7.6745C16.028 7.80953 16.1039 7.99266 16.1039 8.18361Z"
    fill="#878A99" />
  <path opacity="0.8"
    d="M15.0427 12.1438C14.9472 12.3092 14.7899 12.4298 14.6055 12.4792C14.421 12.5287 14.2245 12.5028 14.0592 12.4073L12.1884 11.3271C12.0244 11.2309 11.905 11.0738 11.8564 10.89C11.8078 10.7062 11.8339 10.5106 11.929 10.3459C12.024 10.1813 12.1804 10.0609 12.3638 10.0111C12.5473 9.96127 12.7431 9.98604 12.9084 10.08L14.7791 11.1603C14.9445 11.2558 15.0652 11.413 15.1146 11.5975C15.164 11.7819 15.1381 11.9784 15.0427 12.1438Z"
    fill="#878A99" />
  <path opacity="0.7"
    d="M12.1437 15.0426C12.0619 15.0899 11.9715 15.1206 11.8777 15.1329C11.784 15.1453 11.6887 15.139 11.5974 15.1146C11.5061 15.0901 11.4204 15.0479 11.3454 14.9903C11.2704 14.9327 11.2075 14.861 11.1602 14.7791L10.0802 12.9085C9.98473 12.7431 9.95886 12.5466 10.0083 12.3621C10.0577 12.1777 10.1784 12.0204 10.3437 11.9249C10.5091 11.8295 10.7056 11.8036 10.8901 11.853C11.0745 11.9024 11.2318 12.0231 11.3273 12.1885L12.4073 14.0591C12.4546 14.141 12.4852 14.2314 12.4976 14.3251C12.5099 14.4189 12.5037 14.5141 12.4792 14.6054C12.4547 14.6968 12.4125 14.7824 12.355 14.8574C12.2974 14.9324 12.2256 14.9954 12.1437 15.0426Z"
    fill="#878A99" />
  <path opacity="0.6"
    d="M8.18363 16.1037C7.99268 16.1037 7.80955 16.0278 7.67453 15.8928C7.53951 15.7578 7.46365 15.5746 7.46365 15.3837L7.4635 13.2234C7.46287 13.1285 7.48103 13.0343 7.51693 12.9464C7.55283 12.8585 7.60577 12.7786 7.67269 12.7112C7.73961 12.6438 7.81919 12.5904 7.90686 12.5539C7.99452 12.5174 8.08854 12.4986 8.18349 12.4986C8.27845 12.4986 8.37246 12.5174 8.46013 12.5539C8.54779 12.5904 8.62737 12.6439 8.69429 12.7112C8.76121 12.7786 8.81414 12.8585 8.85004 12.9464C8.88594 13.0343 8.9041 13.1285 8.90347 13.2234L8.90362 15.3837C8.90361 15.5746 8.82775 15.7578 8.69273 15.8928C8.55771 16.0278 8.37458 16.1037 8.18363 16.1037Z"
    fill="#878A99" />
  <path opacity="0.5"
    d="M4.22365 15.0428C4.05828 14.9473 3.93762 14.7901 3.88819 14.6056C3.83877 14.4212 3.86464 14.2246 3.96011 14.0593L5.04037 12.1885C5.13652 12.0245 5.29365 11.9052 5.47746 11.8566C5.66127 11.808 5.85684 11.834 6.0215 11.9291C6.18616 12.0242 6.30653 12.1805 6.35635 12.364C6.40617 12.5475 6.3814 12.7432 6.28743 12.9085L5.20716 14.7792C5.11169 14.9446 4.95443 15.0653 4.76999 15.1147C4.58554 15.1641 4.38902 15.1383 4.22365 15.0428Z"
    fill="#878A99" />
  <path opacity="0.4"
    d="M1.32483 12.1438C1.27755 12.0619 1.24687 11.9715 1.23453 11.8777C1.22219 11.784 1.22843 11.6887 1.2529 11.5974C1.27737 11.5061 1.31959 11.4205 1.37715 11.3454C1.43471 11.2704 1.50648 11.2075 1.58837 11.1602L3.45898 10.0802C3.62435 9.98474 3.82088 9.95886 4.00533 10.0083C4.18978 10.0577 4.34704 10.1784 4.44252 10.3438C4.538 10.5091 4.56387 10.7057 4.51445 10.8901C4.46503 11.0746 4.34436 11.2318 4.17898 11.3273L2.30837 12.4073C2.22648 12.4546 2.13609 12.4853 2.04235 12.4976C1.9486 12.5099 1.85335 12.5037 1.76202 12.4792C1.67069 12.4547 1.58507 12.4125 1.51006 12.355C1.43505 12.2974 1.37211 12.2256 1.32483 12.1438Z"
    fill="#878A99" />
  <path opacity="0.3"
    d="M0.263472 8.18373C0.263479 7.99278 0.339338 7.80966 0.474362 7.67464C0.609386 7.53962 0.792515 7.46376 0.983465 7.46376L3.14373 7.46361C3.23868 7.46298 3.33282 7.48114 3.42072 7.51704C3.50863 7.55294 3.58856 7.60587 3.65593 7.67279C3.72329 7.73972 3.77675 7.8193 3.81323 7.90696C3.84971 7.99463 3.8685 8.08865 3.86849 8.1836C3.86849 8.27855 3.84971 8.37257 3.81323 8.46023C3.77674 8.5479 3.72328 8.62748 3.65591 8.6944C3.58855 8.76132 3.50861 8.81425 3.42071 8.85015C3.3328 8.88605 3.23866 8.90421 3.14371 8.90357L0.983447 8.90373C0.792497 8.90372 0.609369 8.82786 0.474348 8.69284C0.339328 8.55781 0.263474 8.37468 0.263472 8.18373Z"
    fill="#878A99" />
  <path opacity="0.2"
    d="M1.3247 4.22362C1.42018 4.05826 1.57743 3.93759 1.76188 3.88816C1.94632 3.83874 2.14284 3.86461 2.30821 3.96008L4.17898 5.04034C4.34301 5.13649 4.46234 5.29362 4.51094 5.47743C4.55954 5.66124 4.53347 5.85682 4.4384 6.02147C4.34334 6.18613 4.18701 6.3065 4.00353 6.35632C3.82004 6.40614 3.6243 6.38137 3.45901 6.2874L1.58825 5.20714C1.42288 5.11166 1.30221 4.9544 1.25279 4.76996C1.20336 4.58552 1.22923 4.38899 1.3247 4.22362Z"
    fill="#878A99" />
  <path opacity="0.1"
    d="M4.22363 1.32484C4.389 1.22937 4.58553 1.20349 4.76998 1.25292C4.95443 1.30234 5.11169 1.42301 5.20717 1.58838L6.28717 3.459C6.38264 3.62437 6.40852 3.8209 6.35909 4.00534C6.30967 4.18979 6.189 4.34705 6.02363 4.44253C5.85825 4.53801 5.66173 4.56388 5.47728 4.51446C5.29283 4.46504 5.13557 4.34437 5.04009 4.179L3.96009 2.30838C3.86461 2.14301 3.83874 1.94648 3.88816 1.76203C3.93759 1.57758 4.05826 1.42032 4.22363 1.32484Z"
    fill="#878A99" />
  <path
    d="M8.1835 0.263527C8.37445 0.263534 8.55758 0.339393 8.6926 0.474417C8.82762 0.609441 8.90347 0.79257 8.90347 0.98352L8.90363 3.14378C8.90426 3.23874 8.8861 3.33287 8.8502 3.42078C8.81429 3.50868 8.76136 3.58862 8.69444 3.65598C8.62752 3.72335 8.54794 3.77681 8.46027 3.81329C8.3726 3.84977 8.27859 3.86855 8.18363 3.86855C8.08868 3.86855 7.99467 3.84977 7.907 3.81328C7.81934 3.7768 7.73975 3.72333 7.67284 3.65597C7.60592 3.5886 7.55298 3.50867 7.51708 3.42076C7.48119 3.33285 7.46303 3.23872 7.46366 3.14376L7.46351 0.983501C7.46351 0.792551 7.53937 0.609424 7.6744 0.474403C7.80942 0.339383 7.99255 0.263529 8.1835 0.263527Z"
    fill="#7C7F8C" />
  <path
    d="M12.1438 1.32458C12.3092 1.42006 12.4299 1.57731 12.4793 1.76176C12.5287 1.9462 12.5028 2.14272 12.4074 2.3081L11.3271 4.17886C11.2309 4.34289 11.0738 4.46222 10.89 4.51082C10.7062 4.55942 10.5106 4.53335 10.346 4.43828C10.1813 4.34322 10.0609 4.18689 10.0111 4.00341C9.96129 3.81992 9.98607 3.62418 10.08 3.45889L11.1603 1.58813C11.2558 1.42276 11.413 1.30209 11.5975 1.25267C11.7819 1.20324 11.9784 1.22911 12.1438 1.32458Z"
    fill="#7E818F" />
</svg>
