<svg xmlns="http://www.w3.org/2000/svg" xmlns:xlink="http://www.w3.org/1999/xlink" fill="none" version="1.1" width="36" height="36" viewBox="0 0 36 36"><defs><clipPath id="master_svg0_392_40290"><rect x="-1.5" y="-1.5" width="39" height="39" rx="0"/></clipPath></defs><g clip-path="url(#master_svg0_392_40290)"><path d="M11.618643299999999,7.3023418Q11.7043934,7.253378,11.7829828,7.1935937Q11.8615723,7.1338093,11.9316454,7.0642365Q12.0017185,6.99466377,12.0620632,6.91650397Q12.1224079,6.8383441000000005,12.1719847,6.75294673Q12.2215605,6.66754937,12.2595119,6.5763888999999995Q12.2974625,6.48522836,12.3231335,6.38987881Q12.3488045,6.29452926,12.3617516,6.196637Q12.3746986,6.098744743,12.3746996,6Q12.3746996,5.926324457,12.3674774,5.85300368Q12.3602562,5.7796829,12.3458824,5.70742303Q12.3315096,5.6351631300000005,12.3101225,5.56466001Q12.2887354,5.49415696,12.26054,5.42608964Q12.2323465,5.35802227,12.1976166,5.29304624Q12.1628857,5.22807026,12.121954,5.16681135Q12.0810223,5.10555232,12.0342836,5.04860032Q11.9875441,4.9916484,11.9354477,4.9395519Q11.8833513,4.8874555,11.8263988,4.8407161Q11.7694473,4.7939769000000005,11.708188100000001,4.7530451Q11.646929700000001,4.712113,11.581953500000001,4.6773826Q11.5169773,4.6426522,11.4489093,4.6144578Q11.380842699999999,4.5862634,11.310339500000001,4.5648766Q11.2398367,4.5434897,11.1675758,4.5291163999999995Q11.0953169,4.5147429,11.0219965,4.5075213000000005Q10.9486752,4.5002999,10.874999500000001,4.5002999Q10.4769888,4.5002999,10.1313558,4.6976582L10.131207,4.6973977Q9.313076500000001,5.16455454,8.556655899999999,5.72541952Q7.2649281000000006,6.68309033,6.1943254,7.8803079Q2.25,12.2914453,2.249999,18.184126Q2.2499993,24.637428,6.8699896,29.197725Q11.4818492,33.749998000000005,18.000006,33.749998000000005Q24.518152,33.749998000000005,29.130011,29.197725Q33.749998000000005,24.637428,33.749998000000005,18.184126Q33.749998000000005,12.2914829,29.805637,7.8802655Q28.735079,6.68309712,27.443407,5.72546548Q26.686893,5.16453606,25.868792,4.6973968L25.868643,4.6976575Q25.52301,4.5002999,25.125,4.5002999Q25.051327,4.5002999,24.978004,4.5075214Q24.904684,4.5147429,24.832422,4.5291163999999995Q24.760162,4.5434897,24.689659,4.5648766Q24.619156,4.5862634,24.551088,4.6144578Q24.483021,4.6426522,24.418045,4.6773825Q24.353069,4.712113,24.291809,4.7530451Q24.230553,4.7939769000000005,24.173599,4.8407161Q24.11665,4.8874555,24.06455,4.9395519Q24.012455,4.9916484,23.965717,5.04860038Q23.918978,5.10555232,23.878044,5.16681135Q23.837114,5.22807026,23.802383,5.2930463Q23.767653,5.35802227,23.739456,5.42608964Q23.711262,5.49415696,23.689877,5.56466004Q23.668488,5.6351631300000005,23.654114,5.70742303Q23.639742,5.7796829,23.632521,5.85300368Q23.625301,5.926324457,23.625299,6Q23.625298,6.098744825,23.638245,6.19663717Q23.651192,6.2945295,23.676863,6.38987914Q23.702534,6.48522875,23.740484,6.57638931Q23.778435,6.66754985,23.828012,6.75294733Q23.877588,6.83834481,23.937935,6.9165046199999995Q23.99828,6.9946645499999995,24.068352,7.0642374Q24.138424,7.13381,24.217014,7.1935945Q24.295605,7.2533787,24.381357,7.3023425L24.381208,7.3026032Q25.043877,7.6809893,25.656595,8.135299700000001Q26.702684,8.9108582,27.569363,9.8800352Q30.749998,13.4371319,30.749998,18.184126Q30.749998,23.383347,27.022528,27.062658Q23.286922,30.749998,18.000006,30.749998Q12.7130785,30.749998,8.977472299999999,27.062658Q5.2499988,23.383347,5.249999,18.184126Q5.25,13.4371004,8.430674100000001,9.8799937Q9.297318,8.9108565,10.3433447,8.1353455Q10.9561086,7.6809978,11.6187921,7.3026023L11.618643299999999,7.3023418Z" fill-rule="evenodd" fill="#1677FF" fill-opacity="1" style="mix-blend-mode:passthrough"/><path d="M16.5002999,3Q16.5002998,2.926324457,16.5075214,2.85300368Q16.5147429,2.7796829,16.5291164,2.70742303Q16.5434897,2.63516313,16.5648766,2.56466001Q16.5862634,2.4941569599999998,16.6144578,2.42608964Q16.6426522,2.35802227,16.6773825,2.29304624Q16.712113,2.22807026,16.7530451,2.16681135Q16.7939769,2.10555232,16.8407161,2.0486003200000003Q16.8874555,1.9916484,16.9395519,1.9395519Q16.9916484,1.8874555,17.04860038,1.8407161Q17.10555232,1.7939769,17.16681135,1.7530451Q17.22807026,1.712113,17.2930463,1.6773826Q17.35802227,1.6426522,17.42608964,1.6144578Q17.49415696,1.5862634,17.56466004,1.5648766Q17.63516313,1.5434897,17.70742303,1.5291164Q17.7796829,1.5147429,17.85300368,1.5075213Q17.926324457,1.5002999,18,1.5002999Q18.073675543,1.5002999,18.14699632,1.5075214Q18.2203171,1.5147429,18.29257697,1.5291164Q18.36483687,1.5434897,18.43533999,1.5648766Q18.50584304,1.5862634,18.57391036,1.6144578Q18.64197773,1.6426522,18.70695376,1.6773825Q18.77192974,1.712113,18.83318865,1.7530451Q18.89444768,1.7939769,18.95139968,1.8407161Q19.0083516,1.8874555,19.0604481,1.9395519Q19.1125445,1.9916484,19.1592839,2.04860038Q19.2060231,2.10555232,19.2469549,2.16681135Q19.287887,2.22807026,19.3226174,2.2930463Q19.3573478,2.35802227,19.3855422,2.42608964Q19.4137366,2.4941569599999998,19.4351234,2.56466004Q19.4565103,2.63516313,19.4708836,2.70742303Q19.4852571,2.7796829,19.4924787,2.85300368Q19.4997002,2.926324457,19.4997001,3L19.5,3L19.5,18.000000999999997L19.4997001,18.000000999999997Q19.4997002,18.073677,19.4924786,18.146997Q19.4852571,18.220318,19.4708836,18.292576Q19.4565103,18.364838,19.4351234,18.435341Q19.4137366,18.505844,19.3855422,18.573909999999998Q19.3573478,18.641977,19.3226175,18.706953Q19.287887,18.771929,19.2469549,18.833187000000002Q19.2060231,18.894447,19.1592839,18.951399000000002Q19.1125445,19.00835,19.0604481,19.060448Q19.0083516,19.112543,18.95139962,19.159283Q18.89444768,19.20602,18.83318865,19.246952Q18.77192974,19.287884,18.7069537,19.322617Q18.64197773,19.357346,18.57391036,19.38554Q18.50584304,19.413736,18.43533996,19.435123Q18.36483687,19.456511,18.29257697,19.470882Q18.2203171,19.485256,18.14699632,19.492479Q18.073675543,19.499701,18,19.499701Q17.926324457,19.499701,17.85300368,19.492479Q17.7796829,19.485256,17.70742303,19.470882Q17.63516313,19.456511,17.56466001,19.435123Q17.49415696,19.413736,17.42608964,19.38554Q17.35802227,19.357346,17.29304624,19.322617Q17.22807026,19.287884,17.16681135,19.246952Q17.10555232,19.20602,17.04860032,19.159283Q16.9916484,19.112543,16.9395519,19.060448Q16.8874555,19.00835,16.8407161,18.951399000000002Q16.7939769,18.894447,16.7530451,18.833187000000002Q16.712113,18.771929,16.6773826,18.706953Q16.6426522,18.641977,16.6144578,18.573909999999998Q16.5862634,18.505844,16.5648766,18.435341Q16.5434897,18.364838,16.5291164,18.292576Q16.5147429,18.220318,16.5075213,18.146997Q16.5002998,18.073677,16.5002999,18.000000999999997L16.5,18.000000999999997L16.5,3L16.5002999,3Z" fill-rule="evenodd" fill="#1677FF" fill-opacity="1" style="mix-blend-mode:passthrough"/></g></svg>