<svg xmlns="http://www.w3.org/2000/svg" xmlns:xlink="http://www.w3.org/1999/xlink" fill="none" version="1.1" width="24" height="24" viewBox="0 0 24 24"><defs><clipPath id="master_svg0_124_14874/124_11986"><rect x="0" y="0" width="24" height="24" rx="0"/></clipPath></defs><g clip-path="url(#master_svg0_124_14874/124_11986)"><g><path d="M1.438976,11.58137Q1.405358,11.62642,1.3793600000000001,11.67626Q1.3533629999999999,11.726099999999999,1.335652,11.77945Q1.317941,11.832799999999999,1.30897,11.888300000000001Q1.3,11.94379,1.3,12Q1.3,12.05621,1.30897,12.11171Q1.317941,12.167200000000001,1.335652,12.22055Q1.3533629999999999,12.273900000000001,1.3793600000000001,12.32374Q1.405358,12.37358,1.438976,12.41863Q6.12608,18.7,12,18.7Q17.8739,18.7,22.561,12.41863Q22.5946,12.37358,22.6206,12.32374Q22.6466,12.273900000000001,22.6643,12.22055Q22.6821,12.167200000000001,22.691,12.11171Q22.7,12.05621,22.7,12Q22.7,11.94379,22.691,11.888300000000001Q22.6821,11.832799999999999,22.6643,11.77945Q22.6466,11.726099999999999,22.6206,11.67626Q22.5946,11.62642,22.561,11.58137Q17.8739,5.299999,12,5.3Q6.12608,5.3,1.438976,11.58137ZM2.880598,12Q7.02112,17.3,12,17.3Q16.9789,17.3,21.1194,12Q16.9789,6.700001,12,6.7Q7.02112,6.7,2.880598,12Z" fill-rule="evenodd" fill="#2B2B2B" fill-opacity="1" style="mix-blend-mode:passthrough"/></g><g><path d="M9.737263,9.737263Q8.8,10.67453,8.8,12Q8.8,13.32547,9.737263,14.26274Q10.67453,15.2,12,15.2Q13.32547,15.2,14.26274,14.26274Q15.2,13.32547,15.2,12Q15.2,10.67453,14.26274,9.737263Q13.32547,8.8,12,8.8Q10.67453,8.8,9.737263,9.737263ZM10.72721,13.27279Q10.2,12.74558,10.2,12Q10.2,11.25442,10.72721,10.72721Q11.25442,10.2,12,10.2Q12.74558,10.2,13.27279,10.72721Q13.8,11.25442,13.8,12Q13.8,12.74558,13.27279,13.27279Q12.74558,13.8,12,13.8Q11.25442,13.8,10.72721,13.27279Z" fill-rule="evenodd" fill="#2B2B2B" fill-opacity="1" style="mix-blend-mode:passthrough"/></g></g></svg>