<svg xmlns="http://www.w3.org/2000/svg" xmlns:xlink="http://www.w3.org/1999/xlink" fill="none" version="1.1" width="24" height="24" viewBox="0 0 24 24"><g><g><path d="M15.2349,3.20239Q15.3744,3.34049,15.5558,3.4156Q15.7371,3.49072,15.9334,3.49171L19.4954,3.50971Q19.5932,3.51021,19.6891,3.52966Q19.785,3.54912,19.8753,3.58679Q19.9656,3.62447,20.0469,3.67893Q20.1282,3.7334,20.1974,3.8026Q20.2666,3.87179,20.3211,3.95308Q20.3755,4.03437,20.4132,4.12468Q20.4509,4.21499,20.4703,4.31089Q20.4898,4.40679,20.4903,4.50465L20.5083,8.0666Q20.5093,8.26288,20.5844,8.44423Q20.6595,8.62557,20.7976,8.76507L23.3036,11.2965Q23.3724,11.366,23.4265,11.4476Q23.4805,11.5292,23.5177,11.6197Q23.5549,11.7102,23.5739,11.8061Q23.5929,11.9021,23.5929,12Q23.5929,12.0979,23.5739,12.1939Q23.5549,12.2898,23.5177,12.3803Q23.4805,12.4708,23.4265,12.5524Q23.3724,12.634,23.3036,12.7035L20.7976,15.2349Q20.6595,15.3744,20.5844,15.5558Q20.5093,15.7371,20.5083,15.9334L20.4903,19.4954Q20.4898,19.5932,20.4703,19.6891Q20.4509,19.785,20.4132,19.8753Q20.3755,19.9656,20.3211,20.0469Q20.2666,20.1282,20.1974,20.1974Q20.1282,20.2666,20.0469,20.3211Q19.9656,20.3755,19.8753,20.4132Q19.785,20.4509,19.6891,20.4703Q19.5932,20.4898,19.4954,20.4903L15.9334,20.5083Q15.7371,20.5093,15.5558,20.5844Q15.3744,20.6595,15.2349,20.7976L12.7035,23.3036Q12.634,23.3724,12.5524,23.4264Q12.4708,23.4805,12.3803,23.5177Q12.2898,23.5549,12.1939,23.5739Q12.0979,23.5929,12,23.5929Q11.9021,23.5929,11.8061,23.5739Q11.7102,23.5549,11.6197,23.5177Q11.5292,23.4805,11.4476,23.4264Q11.366,23.3724,11.2965,23.3036L8.76507,20.7976Q8.62557,20.6595,8.44423,20.5844Q8.26288,20.5093,8.0666,20.5083L4.50465,20.4903Q4.40679,20.4898,4.31089,20.4703Q4.21499,20.4509,4.12468,20.4132Q4.03437,20.3755,3.95308,20.3211Q3.87179,20.2666,3.8026,20.1974Q3.7334,20.1282,3.67894,20.0469Q3.62447,19.9656,3.58679,19.8753Q3.54912,19.785,3.52966,19.6891Q3.51021,19.5932,3.50971,19.4954L3.49171,15.9334Q3.49072,15.7371,3.4156,15.5558Q3.34049,15.3744,3.20239,15.2349L0.696447,12.7035Q0.627605,12.634,0.573549,12.5524Q0.519494,12.4708,0.482275,12.3803Q0.445057,12.2898,0.426088,12.1939Q0.407119,12.0979,0.407119,12Q0.407119,11.9021,0.426088,11.8061Q0.445057,11.7102,0.482275,11.6197Q0.519494,11.5292,0.573549,11.4476Q0.627605,11.366,0.696447,11.2965L3.20239,8.76507Q3.34049,8.62557,3.4156,8.44423Q3.49072,8.26288,3.49171,8.0666L3.50971,4.50465Q3.51021,4.40679,3.52966,4.31089Q3.54912,4.21499,3.58679,4.12468Q3.62447,4.03437,3.67893,3.95308Q3.7334,3.87179,3.8026,3.8026Q3.87179,3.7334,3.95308,3.67894Q4.03437,3.62447,4.12468,3.58679Q4.21499,3.54912,4.31089,3.52966Q4.40679,3.51021,4.50465,3.50971L8.0666,3.49171Q8.26288,3.49072,8.44422,3.4156Q8.62557,3.34049,8.76506,3.20239L11.2965,0.696447Q11.366,0.627604,11.4476,0.573549Q11.5292,0.519493,11.6197,0.482275Q11.7102,0.445057,11.8061,0.426088Q11.9021,0.407119,12,0.407119Q12.0979,0.407119,12.1939,0.426088Q12.2898,0.445057,12.3803,0.482275Q12.4708,0.519493,12.5524,0.573549Q12.634,0.627605,12.7035,0.696447L15.2349,3.20239Z" fill="#FFCC29" fill-opacity="1"/></g><g><path d="M14.6474,4.6207899999999995Q14.7869,4.7588799999999996,14.9683,4.83399Q15.1496,4.90911,15.3459,4.9101L18.0811,4.92393Q18.179,4.92442,18.2749,4.94388Q18.3708,4.96333,18.4611,5.00101Q18.5514,5.038679999999999,18.6327,5.09315Q18.714,5.14762,18.7832,5.216810000000001Q18.8524,5.286,18.9069,5.367290000000001Q18.9613,5.448589999999999,18.999,5.5389Q19.0367,5.6292100000000005,19.0561,5.72511Q19.0756,5.821009999999999,19.0761,5.9188600000000005L19.0899,8.654119999999999Q19.0909,8.8504,19.166,9.03174Q19.2411,9.213090000000001,19.3792,9.35258L21.3036,11.29648Q21.3724,11.36602,21.4264,11.44759Q21.4805,11.52915,21.5177,11.61965Q21.5549,11.71015,21.5739,11.80615Q21.5929,11.90215,21.5929,12Q21.5929,12.0979,21.5739,12.1939Q21.5549,12.2898,21.5177,12.3803Q21.4805,12.4708,21.4264,12.5524Q21.3724,12.634,21.3036,12.7035L19.3792,14.6474Q19.2411,14.7869,19.166,14.9683Q19.0909,15.1496,19.0899,15.3459L19.0761,18.0811Q19.0756,18.179,19.0561,18.2749Q19.0367,18.3708,18.999,18.4611Q18.9613,18.5514,18.9069,18.6327Q18.8524,18.714,18.7832,18.7832Q18.714,18.8524,18.6327,18.9069Q18.5514,18.9613,18.4611,18.999Q18.3708,19.0367,18.2749,19.0561Q18.179,19.0756,18.0811,19.0761L15.3459,19.0899Q15.1496,19.0909,14.9683,19.166Q14.7869,19.2411,14.6474,19.3792L12.7035,21.3036Q12.634,21.3724,12.5524,21.4264Q12.4708,21.4805,12.3803,21.5177Q12.2898,21.5549,12.1938,21.5739Q12.0979,21.5929,12,21.5929Q11.90215,21.5929,11.80615,21.5739Q11.71015,21.5549,11.61965,21.5177Q11.52915,21.4805,11.44759,21.4264Q11.36602,21.3724,11.29648,21.3036L9.35258,19.3792Q9.213090000000001,19.2411,9.03174,19.166Q8.8504,19.0909,8.654119999999999,19.0899L5.9188600000000005,19.0761Q5.821009999999999,19.0756,5.72511,19.0561Q5.6292100000000005,19.0367,5.5389,18.999Q5.448589999999999,18.9613,5.367290000000001,18.9069Q5.286,18.8524,5.216810000000001,18.7832Q5.14762,18.714,5.09315,18.6327Q5.038679999999999,18.5514,5.00101,18.4611Q4.96333,18.3708,4.94388,18.2749Q4.92442,18.179,4.92393,18.0811L4.9101,15.3459Q4.90911,15.1496,4.83399,14.9683Q4.7588799999999996,14.7869,4.6207899999999995,14.6474L2.696447,12.7035Q2.627605,12.634,2.573549,12.5524Q2.519494,12.4708,2.482275,12.3803Q2.445057,12.2898,2.426088,12.1938Q2.407119,12.0979,2.407119,12Q2.407119,11.90215,2.426088,11.80615Q2.445057,11.71015,2.482275,11.61965Q2.519494,11.52915,2.573549,11.44759Q2.627605,11.36602,2.696447,11.29648L4.6207899999999995,9.35258Q4.7588799999999996,9.213090000000001,4.83399,9.03174Q4.90911,8.8504,4.9101,8.65411L4.92393,5.9188600000000005Q4.92442,5.821009999999999,4.94388,5.72511Q4.96333,5.6292100000000005,5.00101,5.5389Q5.038679999999999,5.448589999999999,5.09315,5.3673Q5.14762,5.286,5.216810000000001,5.216810000000001Q5.286,5.14762,5.367290000000001,5.09315Q5.448589999999999,5.038679999999999,5.5389,5.00101Q5.6292100000000005,4.96333,5.72511,4.94388Q5.821009999999999,4.92442,5.9188600000000005,4.92393L8.65411,4.9101Q8.8504,4.90911,9.03174,4.83399Q9.213090000000001,4.7588799999999996,9.35258,4.6207899999999995L11.29648,2.696447Q11.36602,2.627604,11.44759,2.573549Q11.52915,2.5194929999999998,11.61965,2.482275Q11.71015,2.445057,11.80615,2.426088Q11.90215,2.407119,12,2.407119Q12.0979,2.407119,12.1938,2.426088Q12.2898,2.445057,12.3803,2.482275Q12.4708,2.5194929999999998,12.5524,2.573549Q12.634,2.627605,12.7035,2.696447L14.6474,4.6207899999999995Z" fill="#FD960D" fill-opacity="1"/></g><g><path d="M14.0599,6.03918Q14.1994,6.17727,14.3807,6.25239Q14.5621,6.327500000000001,14.7584,6.32849L16.6669,6.33814Q16.7648,6.33864,16.8607,6.35809Q16.9566,6.37754,17.0469,6.41522Q17.1372,6.45289,17.2185,6.50736Q17.299799999999998,6.5618300000000005,17.369,6.6310199999999995Q17.438200000000002,6.70021,17.4926,6.78151Q17.5471,6.8628,17.5848,6.953110000000001Q17.622500000000002,7.043419999999999,17.6419,7.13932Q17.6614,7.23522,17.6619,7.33307L17.6715,9.24163Q17.6725,9.43792,17.7476,9.61926Q17.822699999999998,9.800609999999999,17.9608,9.940100000000001L19.3036,11.296479999999999Q19.3724,11.366019999999999,19.4265,11.44759Q19.4805,11.52915,19.517699999999998,11.61965Q19.5549,11.710149999999999,19.573900000000002,11.806149999999999Q19.5929,11.902149999999999,19.5929,12Q19.5929,12.09785,19.573900000000002,12.19385Q19.5549,12.28985,19.517699999999998,12.38035Q19.4805,12.47085,19.4265,12.55241Q19.3724,12.63398,19.3036,12.70352L17.9608,14.0599Q17.822699999999998,14.1994,17.7476,14.3807Q17.6725,14.5621,17.6715,14.7584L17.6619,16.6669Q17.6614,16.7648,17.6419,16.8607Q17.622500000000002,16.9566,17.5848,17.0469Q17.5471,17.1372,17.4926,17.2185Q17.438200000000002,17.299799999999998,17.369,17.369Q17.299799999999998,17.438200000000002,17.2185,17.4926Q17.1372,17.5471,17.0469,17.5848Q16.9566,17.622500000000002,16.8607,17.6419Q16.7648,17.6614,16.6669,17.6619L14.7584,17.6715Q14.5621,17.6725,14.3807,17.7476Q14.1994,17.822699999999998,14.0599,17.9608L12.70352,19.3036Q12.63398,19.3724,12.55241,19.4264Q12.47085,19.4805,12.38035,19.517699999999998Q12.28985,19.5549,12.19385,19.573900000000002Q12.09785,19.5929,12,19.5929Q11.902149999999999,19.5929,11.806149999999999,19.573900000000002Q11.710149999999999,19.5549,11.61965,19.517699999999998Q11.52915,19.4805,11.44759,19.4264Q11.366019999999999,19.3724,11.296479999999999,19.3036L9.940100000000001,17.9608Q9.800609999999999,17.822699999999998,9.61926,17.7476Q9.43792,17.6725,9.24163,17.6715L7.33307,17.6619Q7.23522,17.6614,7.13932,17.6419Q7.043419999999999,17.622500000000002,6.953110000000001,17.5848Q6.8628,17.5471,6.78151,17.4926Q6.70022,17.438200000000002,6.6310199999999995,17.369Q6.5618300000000005,17.299799999999998,6.50736,17.2185Q6.4529,17.1372,6.41522,17.0469Q6.37754,16.9566,6.35809,16.8607Q6.33864,16.7648,6.33814,16.6669L6.32849,14.7584Q6.327500000000001,14.5621,6.25239,14.3807Q6.17727,14.1994,6.03918,14.0599L4.696447,12.70352Q4.627605,12.63398,4.573549,12.55241Q4.519494,12.47085,4.482275,12.38035Q4.445057,12.28985,4.426088,12.19385Q4.407119,12.09785,4.407119,12Q4.407119,11.902149999999999,4.426088,11.806149999999999Q4.445057,11.710149999999999,4.482275,11.61965Q4.519494,11.52915,4.573549,11.44759Q4.627605,11.366019999999999,4.696447,11.296479999999999L6.03918,9.940100000000001Q6.17727,9.800609999999999,6.25239,9.61926Q6.327500000000001,9.43792,6.32849,9.24163L6.33814,7.33307Q6.33864,7.23522,6.35809,7.13932Q6.37754,7.043419999999999,6.41522,6.953110000000001Q6.45289,6.8628,6.50736,6.78151Q6.5618300000000005,6.70022,6.6310199999999995,6.6310199999999995Q6.70021,6.5618300000000005,6.78151,6.50736Q6.8628,6.4529,6.953110000000001,6.41522Q7.043419999999999,6.37754,7.13932,6.35809Q7.23522,6.33864,7.33307,6.33814L9.24163,6.32849Q9.437909999999999,6.327500000000001,9.61926,6.25239Q9.8006,6.17727,9.940100000000001,6.03918L11.296479999999999,4.696447Q11.366019999999999,4.627604,11.44759,4.573549Q11.52915,4.519493,11.61965,4.482275Q11.710149999999999,4.445057,11.806149999999999,4.426088Q11.902149999999999,4.407119,12,4.407119Q12.09785,4.407119,12.19385,4.426088Q12.28985,4.445057,12.38035,4.482275Q12.47085,4.519493,12.55241,4.573549Q12.63398,4.627605,12.70352,4.696447L14.0599,6.03918Z" fill="#FEE183" fill-opacity="1"/></g></g></svg>