<svg xmlns="http://www.w3.org/2000/svg" xmlns:xlink="http://www.w3.org/1999/xlink" fill="none" version="1.1" width="24" height="24" viewBox="0 0 24 24"><g><g><path d="M17.2242,2.92494Q17.2358,2.93139,17.2471,2.93814L21.9112,5.71368Q22.0214,5.77929,22.1115,5.87061Q22.2017,5.96193,22.2658,6.07303Q22.33,6.18414,22.364,6.30784Q22.398,6.43154,22.3997,6.55983L22.4714,11.9868Q22.4715,12,22.4714,12.0132L22.3997,17.4402Q22.398,17.5685,22.364,17.6922Q22.33,17.8159,22.2658,17.927Q22.2017,18.0381,22.1115,18.1294Q22.0214,18.2207,21.9112,18.2863L17.2471,21.0619Q17.2358,21.0686,17.2242,21.0751L12.4885,23.7265Q12.3766,23.7892,12.2524,23.8216Q12.1283,23.8539,12,23.8539Q11.8717,23.8539,11.7476,23.8215Q11.6234,23.7892,11.5115,23.7265L6.77576,21.0751Q6.76423,21.0686,6.75289,21.0619L2.08882,18.2863Q1.97857,18.2207,1.88846,18.1294Q1.79834,18.0381,1.73419,17.927Q1.67004,17.8159,1.63602,17.6922Q1.602,17.5685,1.6003,17.4402L1.52864,12.0132Q1.52847,12,1.52864,11.9868L1.6003,6.55983Q1.602,6.43154,1.63602,6.30784Q1.67004,6.18414,1.73419,6.07303Q1.79834,5.96193,1.88846,5.87061Q1.97857,5.77929,2.08882,5.71368L6.75288,2.93814Q6.76423,2.93139,6.77575,2.92494L11.5115,0.273512Q11.6234,0.210837,11.7476,0.178451Q11.8717,0.146064,12,0.146064Q12.1283,0.146064,12.2524,0.178451Q12.3766,0.210837,12.4885,0.273512L17.2242,2.92494Z" fill="#EEEEEE" fill-opacity="1"/></g><g><path d="M16.351599999999998,4.43637Q16.3631,4.44282,16.374499999999998,4.44957L20.1791,6.71368Q20.2894,6.77929,20.3795,6.87061Q20.4696,6.96193,20.5338,7.07303Q20.5979,7.18414,20.6319,7.30784Q20.666,7.43154,20.6676,7.55983L20.7261,11.9868Q20.7263,12,20.7261,12.0132L20.6676,16.4402Q20.666,16.5685,20.6319,16.6922Q20.5979,16.8159,20.5338,16.927Q20.4696,17.0381,20.3795,17.1294Q20.2894,17.2207,20.1791,17.2863L16.374499999999998,19.5504Q16.3631,19.5572,16.351599999999998,19.5636L12.4885,21.7265Q12.3766,21.7892,12.2524,21.8216Q12.1283,21.8539,12,21.8539Q11.8717,21.8539,11.74756,21.8216Q11.62342,21.7892,11.51148,21.7265L7.64838,19.5636Q7.63686,19.5572,7.62551,19.5504L3.82088,17.2863Q3.71062,17.2207,3.62051,17.1294Q3.5303899999999997,17.0381,3.46624,16.927Q3.4020900000000003,16.8159,3.36807,16.6922Q3.33405,16.5685,3.33235,16.4402L3.2739000000000003,12.0132Q3.27372,12,3.2739000000000003,11.9868L3.33235,7.55983Q3.33405,7.43154,3.36807,7.30784Q3.4020900000000003,7.18414,3.46624,7.07303Q3.5303899999999997,6.96193,3.62051,6.87061Q3.71062,6.77929,3.82088,6.71368L7.62551,4.44958Q7.63686,4.44282,7.64838,4.43637L11.51148,2.273512Q11.62342,2.210837,11.74756,2.178451Q11.8717,2.146064,12,2.146064Q12.1283,2.146064,12.2524,2.178451Q12.3766,2.210837,12.4885,2.273512L16.351599999999998,4.43637Z" fill="#D3D3D3" fill-opacity="1"/></g><g><path d="M15.479,5.9478100000000005Q15.4905,5.95426,15.5019,5.96101L18.4471,7.71368Q18.557299999999998,7.77929,18.647399999999998,7.87061Q18.7376,7.96192,18.8017,8.07303Q18.8659,8.18414,18.899900000000002,8.307839999999999Q18.9339,8.43154,18.9356,8.55983L18.980800000000002,11.986799999999999Q18.981,12,18.980800000000002,12.0132L18.9356,15.4402Q18.9339,15.5685,18.899900000000002,15.6922Q18.8659,15.8159,18.8017,15.927Q18.7376,16.0381,18.647399999999998,16.1294Q18.557299999999998,16.2207,18.4471,16.2863L15.5019,18.039Q15.4905,18.0457,15.479,18.0522L12.48852,19.7265Q12.37658,19.7892,12.25244,19.8215Q12.1283,19.8539,12,19.8539Q11.8717,19.8539,11.74756,19.8215Q11.62342,19.7892,11.511479999999999,19.7265L8.52101,18.0522Q8.50949,18.0457,8.49814,18.039L5.55293,16.2863Q5.44268,16.2207,5.35256,16.1294Q5.26244,16.0381,5.19829,15.927Q5.13414,15.8159,5.10012,15.6922Q5.0661000000000005,15.5685,5.0644,15.4402L5.01915,12.0132Q5.01898,12,5.01915,11.986799999999999L5.0644,8.55983Q5.0661000000000005,8.43154,5.10012,8.307839999999999Q5.13414,8.18414,5.19829,8.07303Q5.26244,7.96192,5.35256,7.87061Q5.44268,7.77929,5.55293,7.71368L8.49814,5.96101Q8.50949,5.95426,8.52101,5.9478100000000005L11.511479999999999,4.273512Q11.62342,4.210837,11.74756,4.17845Q11.8717,4.146064,12,4.146064Q12.1283,4.146064,12.25244,4.178451Q12.37658,4.210837,12.48852,4.273512L15.479,5.9478100000000005Z" fill="#EEEEEE" fill-opacity="1"/></g></g></svg>