<svg xmlns="http://www.w3.org/2000/svg" xmlns:xlink="http://www.w3.org/1999/xlink" fill="none" version="1.1" width="12" height="9" viewBox="0 0 12 9"><g transform="matrix(1,0,0,-1,0,17)"><path d="M10.23827,14.161100000000001L11.5,8.5L5.96648,10.23786L7.73412,11.861270000000001L6.16883,13.56562Q6.02328,13.7241,5.80814,13.727350000000001Q5.59299,13.73061,5.44272,13.576609999999999L5.12195,13.24789Q4.68049,12.795490000000001,4.0483899999999995,12.795490000000001Q3.41628,12.795490000000001,2.97482,13.24789L0.142144,16.1508Q0.073795,16.22085,0.03689700000000001,16.31149Q0,16.40213,0,16.5Q0,16.549239999999998,0.009606999999999977,16.597540000000002Q0.019214999999999982,16.64584,0.03805999999999998,16.69134Q0.05690600000000001,16.73684,0.08426499999999998,16.77778Q0.11162499999999997,16.818730000000002,0.146447,16.85355Q0.181269,16.888370000000002,0.222215,16.91573Q0.263161,16.943089999999998,0.308658,16.96194Q0.354155,16.98078,0.4024549,16.990389999999998Q0.4507543,17,0.5,17Q0.601048,17,0.6941660000000001,16.96076Q0.787284,16.92152,0.857856,16.8492L3.69053,13.946290000000001Q3.83768,13.795490000000001,4.0483899999999995,13.795490000000001Q4.2590900000000005,13.795490000000001,4.40624,13.946290000000001L4.727,14.27501Q5.17783,14.73701,5.82327,14.72724Q6.46871,14.717469999999999,6.90535,14.24204L8.47063,12.53769L10.23827,14.161100000000001Z" fill-rule="evenodd" fill="#007747" fill-opacity="1"/></g></svg>