<svg xmlns="http://www.w3.org/2000/svg" xmlns:xlink="http://www.w3.org/1999/xlink" fill="none" version="1.1" width="12" height="9" viewBox="0 0 12 9"><g><path d="M10.23827,6.1611L11.5,0.5L5.96648,2.23786L7.73412,3.86127L6.16883,5.56562Q6.02328,5.7241,5.80814,5.72735Q5.59299,5.73061,5.44272,5.57661L5.12195,5.24789Q4.68049,4.79549,4.0483899999999995,4.79549Q3.41628,4.79549,2.97482,5.24789L0.142144,8.1508Q0.073795,8.22085,0.03689700000000001,8.31149Q0,8.40213,0,8.5Q0,8.54924,0.009606999999999977,8.59754Q0.019214999999999982,8.64584,0.03805999999999998,8.69134Q0.05690600000000001,8.73684,0.08426499999999998,8.77778Q0.11162499999999997,8.81873,0.146447,8.85355Q0.181269,8.88837,0.222215,8.91573Q0.263161,8.94309,0.308658,8.96194Q0.354155,8.98078,0.4024549,8.99039Q0.4507543,9,0.5,9Q0.601048,9,0.6941660000000001,8.96076Q0.787284,8.92152,0.857856,8.8492L3.69053,5.94629Q3.83768,5.79549,4.0483899999999995,5.79549Q4.2590900000000005,5.79549,4.40624,5.94629L4.727,6.27501Q5.17783,6.73701,5.82327,6.72724Q6.46871,6.71747,6.90535,6.24204L8.47063,4.53769L10.23827,6.1611Z" fill-rule="evenodd" fill="#DC2D2D" fill-opacity="1"/></g></svg>