<svg xmlns="http://www.w3.org/2000/svg" xmlns:xlink="http://www.w3.org/1999/xlink" fill="none" version="1.1" width="24" height="24" viewBox="0 0 24 24"><defs><clipPath id="master_svg0_111_22546"><rect x="0" y="0" width="24" height="24" rx="0"/></clipPath></defs><g clip-path="url(#master_svg0_111_22546)"><g><path d="M17.5801,19.514L21.4035,13.01402C21.7717,12.38813,21.7717,11.61187,21.4035,10.98598L17.5801,4.485983C17.2208,3.875092,16.564999999999998,3.5,15.8562,3.5L8.143979999999999,3.5C7.43526,3.5,6.77946,3.875076,6.42012,4.485945L2.596515,10.98594C2.228328,11.61185,2.228328,12.38815,2.596515,13.01406L6.42012,19.5141C6.77946,20.1249,7.43526,20.5,8.143979999999999,20.5L15.8562,20.5C16.564999999999998,20.5,17.2208,20.1249,17.5801,19.514" fill="#2B2B2B" fill-opacity="1"/></g><g><path d="M15,12Q15,12.14738,14.98555,12.29405Q14.97111,12.440719999999999,14.942350000000001,12.58527Q14.913599999999999,12.72982,14.87082,12.87085Q14.82804,13.011890000000001,14.77164,13.14805Q14.71524,13.28421,14.64576,13.41419Q14.57629,13.544170000000001,14.49441,13.66671Q14.41253,13.78925,14.31903,13.903179999999999Q14.22553,14.017109999999999,14.12132,14.12132Q14.017109999999999,14.22553,13.903179999999999,14.31903Q13.78925,14.41253,13.66671,14.49441Q13.544170000000001,14.57629,13.41419,14.64576Q13.28421,14.71524,13.14805,14.77164Q13.011890000000001,14.82804,12.87085,14.87082Q12.72982,14.913599999999999,12.58527,14.94236Q12.440719999999999,14.97111,12.29405,14.98555Q12.14738,15,12,15Q11.85262,15,11.70595,14.98555Q11.559280000000001,14.97111,11.41473,14.942350000000001Q11.27018,14.913599999999999,11.12915,14.87082Q10.98811,14.82804,10.85195,14.77164Q10.71579,14.71524,10.58581,14.64576Q10.45583,14.57629,10.33329,14.49441Q10.21075,14.41253,10.09682,14.31903Q9.982893,14.22553,9.87868,14.12132Q9.774466,14.017109999999999,9.680969,13.903179999999999Q9.587471,13.78925,9.505591,13.66671Q9.423711,13.544170000000001,9.354236,13.41419Q9.284761,13.28421,9.228361,13.14805Q9.171961,13.011890000000001,9.129179,12.87085Q9.0863967,12.72982,9.0576442,12.58527Q9.0288916,12.440719999999999,9.0144458,12.29405Q9,12.14738,9,12Q9,11.85262,9.0144458,11.70595Q9.0288916,11.559280000000001,9.0576442,11.41473Q9.0863967,11.27018,9.129179,11.12915Q9.171961,10.98811,9.228361,10.85195Q9.284761,10.71579,9.354236,10.58581Q9.423711,10.45583,9.505591,10.33329Q9.587471,10.21075,9.680969,10.09682Q9.774466,9.982893,9.87868,9.87868Q9.982893,9.774466,10.09682,9.680969Q10.21075,9.587471,10.33329,9.505591Q10.45583,9.423711,10.58581,9.354236Q10.71579,9.284761,10.85195,9.228361Q10.98811,9.171961,11.12915,9.129179Q11.27018,9.0863967,11.41473,9.0576442Q11.559280000000001,9.0288916,11.70595,9.0144458Q11.85262,9,12,9Q12.14738,9,12.29405,9.0144458Q12.440719999999999,9.0288916,12.58527,9.0576442Q12.72982,9.0863967,12.87085,9.129179Q13.011890000000001,9.171961,13.14805,9.228361Q13.28421,9.284761,13.41419,9.354236Q13.544170000000001,9.423711,13.66671,9.505591Q13.78925,9.587471,13.903179999999999,9.680969Q14.017109999999999,9.774466,14.12132,9.87868Q14.22553,9.982893,14.31903,10.09682Q14.41253,10.21075,14.49441,10.33329Q14.57629,10.45583,14.64576,10.58581Q14.71524,10.71579,14.77164,10.85195Q14.82804,10.98811,14.87082,11.12915Q14.913599999999999,11.27018,14.94236,11.41473Q14.97111,11.559280000000001,14.98555,11.70595Q15,11.85262,15,12Z" fill="#FFFFFF" fill-opacity="1"/></g></g></svg>