<svg t="1718692368720" class="icon" viewBox="0 0 1024 1024" version="1.1"
    xmlns="http://www.w3.org/2000/svg" p-id="2112" xmlns:xlink="http://www.w3.org/1999/xlink"
    width="16" height="16">
    <path
        d="M292.579556 56.888889v68.551111c0 12.629333 10.24 22.869333 22.869333 22.869333h27.420444c12.629333 0 22.869333-10.24 22.869334-22.869333V56.888889h585.102222C991.232 56.888889 1024 89.656889 1024 130.048v768c0 40.391111-32.768 73.102222-73.159111 73.102222H365.795556v-68.551111a22.869333 22.869333 0 0 0-22.869334-22.869333h-27.420444a22.869333 22.869333 0 0 0-22.869334 22.869333v68.551111H73.159111c-40.391111 0-73.159111-32.711111-73.159111-73.102222v-96.142222c0-19.285333 12.970667-35.953778 31.516444-41.016889a256.113778 256.113778 0 0 0 0-493.681778 42.609778 42.609778 0 0 1-31.516444-40.96V129.991111C0 89.656889 32.768 56.888889 73.159111 56.888889h219.420445z m50.289777 603.420444h-27.420444a22.869333 22.869333 0 0 0-22.869333 22.869334v100.579555c0 12.629333 10.24 22.869333 22.869333 22.869334h27.420444c12.629333 0 22.869333-10.24 22.869334-22.869334v-100.579555a22.869333 22.869333 0 0 0-22.869334-22.869334z m0-219.420444h-27.420444a22.869333 22.869333 0 0 0-22.869333 22.869333V564.337778c0 12.629333 10.24 22.812444 22.869333 22.812444h27.420444c12.629333 0 22.869333-10.24 22.869334-22.812444V463.758222a22.869333 22.869333 0 0 0-22.869334-22.869333z m0-219.420445h-27.420444a22.869333 22.869333 0 0 0-22.869333 22.869334v100.579555c0 12.572444 10.24 22.812444 22.869333 22.812445h27.420444c12.629333 0 22.869333-10.24 22.869334-22.869334V244.394667a22.869333 22.869333 0 0 0-22.869334-22.869334z"
        fill="#CFD1D4" p-id="2113"></path>
    <path
        d="M770.730667 298.325333l-62.805334 145.635556a716.8 716.8 0 0 0-11.377777 28.216889h-1.137778l-75.946667-173.852445H526.848l103.822222 193.934223H551.992889v55.182222h95.971555v47.786666H551.992889v55.182223h95.971555v80.099555h87.893334v-80.042666h92.899555v-55.296h-92.899555v-47.672889h92.899555v-55.239111h-77.027555l106.894222-193.991112h-87.893333z"
        fill="#60666E" p-id="2114"></path>
</svg>
