<svg t="1718692330636" class="icon" viewBox="0 0 1024 1024" version="1.1"
    xmlns="http://www.w3.org/2000/svg" p-id="1533" xmlns:xlink="http://www.w3.org/1999/xlink"
    width="16" height="16">
    <path
        d="M484.295111 28.444444C318.464 28.444444 171.576889 106.097778 80.270222 225.621333l-30.321778-16.896a21.617778 21.617778 0 0 0-27.932444 7.736889 18.887111 18.887111 0 0 0-2.503111 9.443556l-0.455111 0.227555 11.207111 109.226667 0.568889 0.284444c0.568889 6.257778 3.811556 12.288 9.955555 15.701334 6.144 3.413333 13.198222 3.128889 19.171556 0.455111l0.512 0.284444 101.717333-44.373333V307.2a19.797333 19.797333 0 0 0 9.216-7.68 19.569778 19.569778 0 0 0-6.257778-26.282667l-29.866666-17.066666a443.676444 443.676444 0 0 1 349.013333-167.310223c242.517333 0 439.125333 189.44 439.125333 423.082667 0 233.699556-196.608 423.139556-439.125333 423.139556-166.798222 0-311.921778-89.656889-386.218667-221.639111l-57.059555 24.689777C125.155556 891.221333 291.953778 995.555556 484.295111 995.555556c277.162667 0 501.873778-216.462222 501.873778-483.555556 0-267.036444-224.711111-483.555556-501.873778-483.555556z"
        fill="#60666E" p-id="1534"></path>
    <path
        d="M478.776889 189.326222c184.775111 0 334.563556 144.327111 334.563555 322.332445 0 178.062222-149.788444 322.389333-334.563555 322.389333s-334.506667-144.327111-334.506667-322.389333 149.731556-322.332444 334.506667-322.332445z m99.384889 127.431111a24.462222 24.462222 0 0 0-33.678222 0.227556L478.321778 381.895111 412.558222 317.44l-0.796444-0.739556a24.689778 24.689778 0 0 0-32.938667 0.398223 22.471111 22.471111 0 0 0-0.967111 31.744l0.739556 0.739555 76.344888 74.922667v6.144H347.875556a23.381333 23.381333 0 0 0-23.836445 22.926222c0 12.686222 10.695111 22.926222 23.893333 22.926222h107.008v54.044445H347.875556a23.381333 23.381333 0 0 0-23.836445 22.869333c0 12.743111 10.695111 22.983111 23.893333 22.983111h107.008v113.891556c0 12.686222 10.752 22.926222 23.836445 22.926222 13.084444 0 23.836444-10.24 23.836444-22.926222v-113.891556h107.064889c13.141333 0 23.836444-10.24 23.836445-22.926222a23.495111 23.495111 0 0 0-23.836445-23.04H502.613333v-53.930667h107.064889c13.141333 0 23.836444-10.24 23.836445-22.983111a23.381333 23.381333 0 0 0-23.836445-22.926222H502.613333v-6.997333l75.832889-74.410667a22.357333 22.357333 0 0 0-0.284444-32.426667z"
        fill="#CFD1D4" p-id="1535"></path>
</svg>
