<svg t="1724058658894" class="icon" viewBox="0 0 1024 1024" version="1.1"
    xmlns="http://www.w3.org/2000/svg" p-id="3973" width="32" height="32">
    <path
        d="M910.28 130.79H113.72C51.34 130.79 0.51 181.1 0 243.48h1024c-0.51-62.38-51.34-112.69-113.72-112.69zM0 300.47v479.02c0 62.89 50.83 113.72 113.72 113.72h796.3c62.89 0 113.72-50.83 113.72-113.72V300.47H0z m706.97 349.89l-144.02 91.13c-6.41 6.16-19.51 3.08-19.51-6.16v-40.82c0-6.16-6.42-12.58-13.09-12.58H320.88c-6.42-3.08-9.75-6.16-9.75-12.58v-28.24c0-6.16 6.41-12.58 13.09-12.58H700.3c6.67 3.1 13.09 12.34 6.67 21.83z m6.42-107.81c0 6.16-6.42 12.58-13.09 12.58H320.88c-9.75-3.08-13.09-15.66-6.42-22.08l144.01-91.13c6.42-6.16 19.51-3.08 19.51 6.16v43.89c0 6.16 6.42 12.58 13.09 12.58h209.47c6.42 0 13.09 6.16 13.09 12.58v25.42h-0.24z m0 0"
        p-id="3974" fill="#0052D9"></path>
</svg>
