<svg t="1718692323384" class="icon" viewBox="0 0 1024 1024" version="1.1"
    xmlns="http://www.w3.org/2000/svg" p-id="1389" xmlns:xlink="http://www.w3.org/1999/xlink"
    width="16" height="16">
    <path
        d="M557.511111 623.331556V910.222222a56.888889 56.888889 0 0 0 56.888889 56.888889h286.606222a56.888889 56.888889 0 0 0 56.888889-56.888889v-286.890666a56.888889 56.888889 0 0 0-56.888889-56.888889H614.4a56.888889 56.888889 0 0 0-56.888889 56.888889zM113.777778 967.111111h286.72a56.888889 56.888889 0 0 0 56.888889-56.888889v-286.890666a56.888889 56.888889 0 0 0-56.888889-56.888889H113.777778a56.888889 56.888889 0 0 0-56.888889 56.888889V910.222222a56.888889 56.888889 0 0 0 56.888889 56.888889zM56.888889 122.538667v286.890666a56.888889 56.888889 0 0 0 56.888889 56.888889h286.72a56.888889 56.888889 0 0 0 56.888889-56.888889V122.538667a56.888889 56.888889 0 0 0-56.888889-56.888889H113.777778a56.888889 56.888889 0 0 0-56.888889 56.888889z"
        fill="#CFD1D4" p-id="1390"></path>
    <path
        d="M728.917333 40.163556L554.439111 214.357333a56.888889 56.888889 0 0 0 0 80.440889l174.478222 174.535111a56.888889 56.888889 0 0 0 80.440889 0l174.421334-174.535111a56.888889 56.888889 0 0 0 0-80.440889L809.358222 40.163556a56.888889 56.888889 0 0 0-80.440889 0z"
        fill="#60666E" p-id="1391"></path>
</svg>
