<svg t="1718762603373" class="icon" viewBox="0 0 1056 1024" version="1.1"
    xmlns="http://www.w3.org/2000/svg" p-id="4339" xmlns:xlink="http://www.w3.org/1999/xlink"
    width="33" height="32">
    <path
        d="M313.92 56.896V125.44c0 12.64 10.24 22.88 22.88 22.88h27.424c12.608 0 22.848-10.24 22.848-22.88V56.896h585.12a73.184 73.184 0 0 1 73.152 73.152v768a73.12 73.12 0 0 1-73.152 73.088H387.136v-68.544a22.88 22.88 0 0 0-22.88-22.848h-27.392a22.816 22.816 0 0 0-22.88 22.848v68.544H94.496a73.12 73.12 0 0 1-73.152-73.088V801.92c0-19.296 12.96-35.968 31.52-41.024a256.128 256.128 0 0 0 0-493.696 42.624 42.624 0 0 1-31.52-40.96V129.984a73.152 73.152 0 0 1 73.152-73.088H313.92z m50.304 603.424h-27.424a22.816 22.816 0 0 0-22.88 22.848v100.576c0 12.64 10.24 22.88 22.88 22.88h27.424c12.608 0 22.848-10.24 22.848-22.88V683.2a22.88 22.88 0 0 0-22.848-22.848z m0-219.424h-27.424a22.88 22.88 0 0 0-22.88 22.848v100.608c0 12.608 10.24 22.784 22.88 22.784h27.424c12.608 0 22.848-10.24 22.848-22.784v-100.608a22.912 22.912 0 0 0-22.848-22.848z m0-219.424h-27.424a22.88 22.88 0 0 0-22.88 22.88v100.576c0 12.576 10.24 22.816 22.88 22.816h27.424c12.608 0 22.848-10.24 22.848-22.88v-100.48a22.88 22.88 0 0 0-22.848-22.848V221.44z"
        fill="#0052D9" fill-opacity=".26" p-id="4340"></path>
    <path
        d="M792.064 298.336l-62.784 145.6c-4 9.344-7.808 18.752-11.392 28.256h-1.152l-75.936-173.856h-92.608l103.808 193.92h-78.656v55.2h95.968V595.2h-96v55.168h96v80.096h87.872v-80h92.928v-55.328h-92.928v-47.68h92.928v-55.232h-77.056l106.88-193.984h-87.872v0.064z"
        fill="#0052D9" p-id="4341"></path>
</svg>
