<svg t="1718692340089" class="icon" viewBox="0 0 1024 1024" version="1.1"
    xmlns="http://www.w3.org/2000/svg" p-id="1677" xmlns:xlink="http://www.w3.org/1999/xlink"
    width="16" height="16">
    <path
        d="M965.973333 510.691556c34.133333 0 58.026667 23.893333 58.026667 58.026666v44.373334c0 34.133333-23.893333 54.613333-58.026667 54.613333h-136.533333c-34.133333 0-58.026667-20.48-58.026667-54.613333v-44.373334c0-34.133333 23.893333-58.026667 58.026667-58.026666z m-119.466666 37.546666c-23.893333 0-40.96 17.066667-40.96 40.96s20.48 40.96 40.96 40.96c23.893333 0 40.96-20.48 40.96-40.96a41.528889 41.528889 0 0 0-40.96-40.96z"
        fill="#60666E" p-id="1678"></path>
    <path
        d="M727.04 609.678222v-40.96c0-61.44 37.546667-119.466667 98.986667-119.466666h157.013333v-215.04c0-71.68-47.786667-136.533333-119.466667-136.533334l20.48 92.16c10.24 3.413333 20.48 13.653333 20.48 27.306667l-3.413333 40.96c0 13.653333-6.826667 20.48-20.48 20.48H92.16c-13.653333 0-20.48-3.413333-20.48-20.48v-40.96c0-13.653333 6.826667-20.48 20.48-20.48H170.666667l177.493333-98.986667H136.533333c-71.68 0-136.533333 68.266667-136.533333 139.946667v573.44c0 71.68 58.026667 133.12 129.706667 133.12h720.213333c71.68 0 136.533333-64.853333 136.533333-136.533333v-78.506667h-157.013333c-61.44-3.413333-102.4-58.026667-102.4-119.466667z"
        fill="#CFD1D4" p-id="1679"></path>
    <path
        d="M826.026667 234.211556l-54.613334-129.706667c-6.826667-40.96-58.026667-54.613333-85.333333-44.373333L256 234.211556h570.026667z"
        fill="#60666E" p-id="1680"></path>
</svg>
