<?xml version="1.0" standalone="no"?><!DOCTYPE svg PUBLIC "-//W3C//DTD SVG 1.1//EN" "http://www.w3.org/Graphics/SVG/1.1/DTD/svg11.dtd"><svg t="1734483790985" class="icon" viewBox="0 0 1024 1024" version="1.1" xmlns="http://www.w3.org/2000/svg" p-id="45389" xmlns:xlink="http://www.w3.org/1999/xlink" width="32" height="32"><path d="M565.374562 633.689169v322.352898c0 35.299236 28.614472 63.913708 63.913708 63.913708h322.036494c35.299236 0 63.913708-28.614472 63.913708-63.913708v-322.352898c0-35.299236-28.614472-63.913708-63.913708-63.913708h-322.030742c-35.304989 0-63.919461 28.614472-63.91946 63.913708zM66.790112 1019.961528h322.157304c35.304989 0 63.919461-28.620225 63.91946-63.919461v-322.352898c0-35.299236-28.614472-63.913708-63.913707-63.913708h-322.157304C31.490876 569.769708 2.876404 598.38418 2.876404 633.683416v322.352899c0 35.299236 28.620225 63.913708 63.919461 63.913707zM2.876404 71.001169v322.347146a63.919461 63.919461 0 0 0 63.919461 63.925213h322.157304c35.304989 0 63.919461-28.620225 63.91946-63.925213V71.001169c0-35.299236-28.614472-63.919461-63.913708-63.919461h-322.157303C31.490876 7.081708 2.876404 35.701933 2.876404 71.001169z" fill="#0052D9" fill-opacity=".26" p-id="45390"></path><path d="M793.74382 5.102742l224.290517 111.53546v272.683146l-24.449438 12.149933-130.157303-129.794877a98.229213 98.229213 0 0 0-118.295012-130.876404c-3.595506 1.075775-4.527461 5.534202-1.869663 8.197753l45.521978 45.447191v59.685393h-59.829214l-44.296629-44.227595a4.774831 4.774831 0 0 0-8.128719 2.157303 98.229213 98.229213 0 0 0 130.876405 114.768539l111.892134 111.604495-125.555056 62.417977L569.52809 389.321348v-272.683146L793.74382 5.177528V5.102742z" fill="#0052D9" p-id="45391"></path></svg>