<svg xmlns="http://www.w3.org/2000/svg" xmlns:xlink="http://www.w3.org/1999/xlink" fill="none" version="1.1" width="52" height="52" viewBox="0 0 52 52"><defs><clipPath id="master_svg0_1014_51966"><rect x="0" y="0" width="52" height="52" rx="0"/></clipPath></defs><g clip-path="url(#master_svg0_1014_51966)"><path d="M9.66295513,42.559727C9.20303726,43.994816,10.26534295,45.5,11.7724011,45.5L40.2276705,45.5C41.7346955,45.5,42.7970125,43.994816,42.3371355,42.559727C41.0576115,38.567207,39.0000365,31.319818,39.0000365,26C39.0000365,20.680183,41.0576115,13.4327917,42.3371355,9.440275C42.7970125,8.005161600000001,41.7346955,6.5,40.2276705,6.5L11.7724011,6.5C10.26534295,6.5,9.20303726,8.005161600000001,9.66295513,9.440275C10.9424593,13.4327917,13.0000341,20.680183,13.0000341,26C13.0000341,31.319818,10.9424593,38.567207,9.66295513,42.559727Z" fill="#0052D9" fill-opacity="0.298039" style="mix-blend-mode:passthrough"/><path d="M2.8335518836975098,16.24999955373535C2.8335518836975098,16.574489953735352,2.9387977136975096,16.89022735373535,3.13349199369751,17.149819653735353Q4.04626748369751,18.36735345373535,4.55288048369751,21.00199505373535Q4.999788483697509,23.32613945373535,4.999788483697509,26.000000453735353Q4.999788483697509,28.67386045373535,4.552880683697509,30.99800445373535Q4.04626778369751,33.63264445373535,3.1332519036975097,34.85000045373535C2.9387974736975098,35.10977145373535,2.8335518836975098,35.42550845373535,2.8335518836975098,35.75000045373535C2.8335518836975098,36.57826245373535,3.5049904536975096,37.24970045373535,4.33325198369751,37.24970045373535C4.80529308369751,37.24970045373535,5.24978638369751,37.02745445373535,5.53301148369751,36.64982045373535Q6.861587983697509,34.87888745373535,7.4989099836975095,31.56449545373535Q7.99978828369751,28.95967645373535,7.99978828369751,26.000000453735353Q7.99978828369751,23.040322353735352,7.4989099836975095,20.435504953735354Q6.8615889836975095,17.12111495373535,5.53325178369751,15.34999948373535C5.24978688369751,14.972546223735351,4.80529358369751,14.750299453735352,4.33325198369751,14.750299453735352C3.5049904536975096,14.750299453735352,2.8335518836975098,15.421738023735351,2.8335518836975098,16.24999955373535Z" fill-rule="evenodd" fill="#0052D9" fill-opacity="1" style="mix-blend-mode:passthrough"/><path d="M32.50000045373535,18.291748046875L19.49999955373535,18.291748046875L19.49999955373535,18.291748046875C18.67173802373535,18.291448146875,18.00029945373535,17.620009446875,18.00029945373535,16.791748046875C18.00029945373535,15.963486556875,18.67173802373535,15.292047977445,19.49999955373535,15.292047977445L19.49999955373535,15.292047977445L32.50000045373535,15.291748046875L32.50000045373535,15.291748046875C33.32826045373535,15.292047977445,33.99970045373535,15.963486556875,33.99970045373535,16.791748046875C33.99970045373535,17.620009446875,33.32826045373535,18.291448146875,32.50000045373535,18.291748046875L32.50000045373535,18.291748046875Z" fill-rule="evenodd" fill="#FFFFFF" fill-opacity="1" style="mix-blend-mode:passthrough"/><path d="M32.50000045373535,27.5L19.49999955373535,27.5L19.49999955373535,27.5C18.67173802373535,27.4997001,18.00029945373535,26.8282614,18.00029945373535,26C18.00029945373535,25.17173851,18.67173802373535,24.50029993057,19.49999955373535,24.50029993057L19.49999955373535,24.50029993057L32.50000045373535,24.5L32.50000045373535,24.5C33.32826045373535,24.50029993057,33.99970045373535,25.17173851,33.99970045373535,26C33.99970045373535,26.8282614,33.32826045373535,27.4997001,32.50000045373535,27.5L32.50000045373535,27.5Z" fill-rule="evenodd" fill="#FFFFFF" fill-opacity="1" style="mix-blend-mode:passthrough"/><path d="M23.833333053735352,36.166748046875L19.49999955373535,36.166748046875L19.49999955373535,36.166748046875C18.67173802373535,36.166448146875,18.00029945373535,35.495009446875,18.00029945373535,34.666748046875C18.00029945373535,33.838486556875,18.67173802373535,33.167047977445,19.49999955373535,33.167047977445L19.49999955373535,33.167047977445L23.833333053735352,33.166748046875L23.833333053735352,33.166748046875C24.661594353735353,33.167047977445,25.333033053735353,33.838486556875,25.333033053735353,34.666748046875C25.333033053735353,35.495009446875,24.661594353735353,36.166448146875,23.833333053735352,36.166748046875L23.833333053735352,36.166748046875Z" fill-rule="evenodd" fill="#FFFFFF" fill-opacity="1" style="mix-blend-mode:passthrough"/><path d="M49.1662593,16.24999955373535C49.1662593,16.574489953735352,49.061013700000004,16.89022735373535,48.8663197,17.149819653735353Q47.9535398,18.36735895373535,47.4469185,21.00199885373535Q47,23.326158553735354,47,26.000000453735353Q47,28.44549945373535,47.44238,30.569091453735354Q47.9346161,32.932012453735354,49.0082002,35.07917945373535L49.0082002,35.07917945373535C49.1120529,35.28755545373535,49.1662593,35.51717945373535,49.1662593,35.75000045373535C49.1662593,36.57826245373535,48.4948206,37.24970045373535,47.6665592,37.24970045373535C47.0985146,37.24970045373535,46.5792236,36.92876045373535,46.3251865,36.42068645373536L46.3251865,36.42068645373536Q45.0771132,33.92520945373535,44.50542909,31.180908453735352Q44,28.75465345373535,44,26.000000453735353Q44,23.040338553735353,44.50089073,20.43550015373535Q45.1382217,17.12111615373535,46.4665592,15.349999543735352C46.7500241,14.97254634373535,47.1945176,14.750299453735352,47.6665592,14.750299453735352C48.4948206,14.750299453735352,49.1662593,15.421738023735351,49.1662593,16.24999955373535Z" fill-rule="evenodd" fill="#0052D9" fill-opacity="1" style="mix-blend-mode:passthrough"/></g></svg>
