<svg t="1718762616032" class="icon" viewBox="0 0 1024 1024" version="1.1"
    xmlns="http://www.w3.org/2000/svg" p-id="4655" xmlns:xlink="http://www.w3.org/1999/xlink"
    width="32" height="32">
    <path
        d="M965.952 510.72c34.144 0 58.048 23.872 58.048 57.984v44.384c0 34.144-23.904 54.624-58.048 54.624H829.44c-34.144 0-58.048-20.48-58.048-54.624v-44.384c0-34.112 23.904-58.016 58.048-58.016h136.512z m-119.456 37.504c-23.904 0-40.96 17.088-40.96 40.96 0 23.904 20.48 40.96 40.96 40.96 23.904 0 40.96-20.48 40.96-40.96a41.536 41.536 0 0 0-40.96-40.96z"
        fill="#0052D9" p-id="4656"></path>
    <path
        d="M727.04 609.664v-40.96c0-61.44 37.536-119.456 98.976-119.456h157.024V234.24c0-71.68-47.776-136.544-119.456-136.544l20.48 92.16c10.24 3.424 20.48 13.664 20.48 27.328l-3.424 40.96c0 13.632-6.816 20.48-20.48 20.48H92.16c-13.664 0-20.48-3.424-20.48-20.48v-40.96c0-13.664 6.816-20.48 20.48-20.48h78.496l177.504-99.008H136.544C64.864 97.664 0 165.952 0 237.632v573.44c0 71.68 58.016 133.12 129.696 133.12H849.92c71.68 0 136.544-64.864 136.544-136.544v-78.496H829.44c-61.44-3.424-102.4-58.048-102.4-119.488z"
        fill="#0052D9" fill-opacity=".26" p-id="4657"></path>
    <path
        d="M826.016 234.24l-54.592-129.728c-6.848-40.96-58.048-54.624-85.344-44.384L256 234.24h570.016z"
        fill="#0052D9" p-id="4658"></path>
</svg>
