<svg t="1718762480534" class="icon" viewBox="0 0 1056 1024" version="1.1"
    xmlns="http://www.w3.org/2000/svg" p-id="3546" xmlns:xlink="http://www.w3.org/1999/xlink"
    width="33" height="32">
    <path
        d="M933.12 113.792c51.648 0 93.504 42.368 93.504 94.592v360.736a209.056 209.056 0 0 0-163.648-79.072c-116.16 0-210.4 95.36-210.4 212.928a213.408 213.408 0 0 0 78.176 165.536H114.88a94.08 94.08 0 0 1-93.536-94.592V208.448c0-52.416 41.856-94.656 93.536-94.656h818.24zM316.64 255.68a132.8 132.8 0 0 0-132.544 133.056c0 48.32 26.112 92.864 68.288 116.416a212.864 212.864 0 0 0-146.176 176.32h53.6a159.296 159.296 0 0 1 156.832-133.12 159.296 159.296 0 0 1 156.864 133.12h53.568a212.896 212.896 0 0 0-146.176-176.32 133.12 133.12 0 0 0 68.256-116.416 132.736 132.736 0 0 0-132.544-133.12l0.032 0.064z m335.776 260.16h-46.4a23.552 23.552 0 0 0-23.584 23.552c0 13.184 10.56 23.776 23.552 23.776h46.4a23.552 23.552 0 0 0 21.856-32.64 23.68 23.68 0 0 0-21.824-14.72zM316.608 308.576a79.68 79.68 0 0 1 79.52 79.872 79.616 79.616 0 0 1-110.016 73.632 79.648 79.648 0 0 1-49.056-73.696A79.616 79.616 0 0 1 316.608 308.48v0.064z m522.816 80h-233.44a23.552 23.552 0 0 0-23.552 23.52c0 13.248 10.56 23.776 23.552 23.776h233.408a23.552 23.552 0 0 0 21.824-32.64 23.584 23.584 0 0 0-21.792-14.688z m0-127.36h-233.44a23.552 23.552 0 0 0-23.552 23.584c0 13.248 10.56 23.776 23.552 23.776h233.408a23.552 23.552 0 0 0 21.824-32.64 23.584 23.584 0 0 0-21.792-14.72z"
        fill="#0052D9" fill-opacity=".26" p-id="3547"></path>
    <path
        d="M862.944 518.496c100.704 0 182.4 82.592 182.4 184.48 0 101.888-81.632 184.48-182.4 184.48-100.672 0-182.304-82.592-182.304-184.48 0-101.888 81.6-184.48 182.304-184.48z m97.856 99.328a27.904 27.904 0 0 0-19.904 8.32l-110.816 112.032-31.424-31.776a27.872 27.872 0 0 0-39.68 0 28.608 28.608 0 0 0 0 40.16l51.296 51.872a27.84 27.84 0 0 0 39.712 0l130.624-132.16a28.608 28.608 0 0 0-9.088-46.304 27.904 27.904 0 0 0-10.784-2.144h0.064z"
        fill="#0052D9" p-id="3548"></path>
</svg>
