<svg t="1718763884355" class="icon" viewBox="0 0 1024 1024" version="1.1"
    xmlns="http://www.w3.org/2000/svg" p-id="4814" xmlns:xlink="http://www.w3.org/1999/xlink"
    width="32" height="32">
    <path
        d="M888.539835 201.567055v438.045947A221.758961 221.758961 0 0 0 631.037042 998.075322l-460.413842-0.16a113.791467 113.791467 0 0 1-113.791466-113.791466V201.503055h831.676101v0.064z"
        fill="#CFD1D4" p-id="4815"></path>
    <path
        d="M113.759467 0H831.676102a56.895733 56.895733 0 0 1 56.895733 56.895733v109.439487H56.863733v-109.439487A56.895733 56.895733 0 0 1 113.759467 0z"
        fill="#60666E" p-id="4816"></path>
    <path
        d="M388.062181 388.094181a56.895733 56.895733 0 0 1 56.895733 56.895733v54.047747H167.807213v-54.079747a56.895733 56.895733 0 0 1 56.895734-56.863733h163.423234-0.064zM306.398564 221.758961a83.19961 83.19961 0 1 1 0 166.36722 83.19961 83.19961 0 0 1 0-166.39922zM167.743214 604.317167H555.837395v66.559688H167.743214v-66.559688z m0 171.871195h277.2147v66.559688H167.743214v-66.559688z"
        fill="#FFFFFF" p-id="4817"></path>
    <path
        d="M914.875712 967.163466a194.04709 194.04709 0 1 1-274.430714-274.430713 194.04709 194.04709 0 0 1 274.430714 274.430713z m-2.14399-181.951147a23.999888 23.999888 0 0 0-33.471844-34.431838l-115.03946 111.743476-75.519646-73.343656a23.999888 23.999888 0 0 0-33.439844 34.431838l92.255568 89.59958a23.999888 23.999888 0 0 0 33.439843 0l131.775383-127.9994z"
        fill="#CFD1D4" p-id="4818"></path>
</svg>
