<svg t="1718762579437" class="icon" viewBox="0 0 1056 1024" version="1.1"
    xmlns="http://www.w3.org/2000/svg" p-id="3863" xmlns:xlink="http://www.w3.org/1999/xlink"
    width="33" height="32">
    <path
        d="M494.944 28.448c-165.824 0-312.704 77.664-404 197.184l-30.336-16.896a21.632 21.632 0 0 0-27.936 7.712 18.88 18.88 0 0 0-2.496 9.472l-0.448 0.224 11.2 109.216 0.576 0.288c0.544 6.24 3.808 12.288 9.92 15.68a21.312 21.312 0 0 0 19.2 0.48l0.512 0.288 101.728-44.384V307.2a19.808 19.808 0 0 0 9.216-7.68 19.584 19.584 0 0 0-6.272-26.272l-29.856-17.088a443.68 443.68 0 0 1 348.992-167.296c242.528 0 439.136 189.44 439.136 423.072 0 233.696-196.608 423.136-439.136 423.136-166.784 0-311.904-89.632-386.208-221.632l-57.056 24.704c84.16 153.088 250.944 257.408 443.264 257.408 277.184 0 501.888-216.448 501.888-483.552C996.8 244.96 772.128 28.448 494.944 28.448z"
        fill="#0052D9" p-id="3864"></path>
    <path
        d="M489.44 189.312c184.768 0 334.56 144.32 334.56 322.336 0 178.08-149.76 322.4-334.56 322.4-184.768 0-334.496-144.32-334.496-322.4 0-178.048 149.728-322.336 334.496-322.336zM588.832 316.8a24.448 24.448 0 0 0-33.664 0.224l-66.176 64.896-65.76-64.448-0.8-0.736a24.672 24.672 0 0 0-32.96 0.384 22.464 22.464 0 0 0-0.96 31.744l0.768 0.736 76.32 74.944v6.144h-107.072a23.36 23.36 0 0 0-23.808 22.912c0 12.704 10.688 22.944 23.872 22.944h107.008v54.048h-107.072a23.36 23.36 0 0 0-23.808 22.848c0 12.736 10.688 22.976 23.872 22.976h107.008v113.92c0 12.672 10.752 22.912 23.84 22.912s23.84-10.24 23.84-22.912v-113.92h107.072c13.12 0 23.84-10.24 23.84-22.912a23.52 23.52 0 0 0-23.84-23.04H513.28v-53.92h107.072c13.12 0 23.84-10.24 23.84-23.008a23.424 23.424 0 0 0-23.84-22.912H513.28v-7.008l75.84-74.4a22.368 22.368 0 0 0-0.32-32.416z"
        fill="#0052D9" fill-opacity=".26" p-id="3865"></path>
</svg>
