<svg width="32.000008" height="32.000000" viewBox="0 0 32 32" fill="none" xmlns="http://www.w3.org/2000/svg" xmlns:xlink="http://www.w3.org/1999/xlink">
	<desc>
			Created with Pixso.
	</desc>
	<defs>
		<clipPath id="clip202_2861">
			<rect id="svg" width="9.056716" height="9.113930" transform="translate(20.931091 21.265839)" fill="white" fill-opacity="0"/>
		</clipPath>
	</defs>
	<path id="path" d="M6.03 0L27.4 0C27.49 0 27.58 0 27.67 0.02C27.76 0.04 27.84 0.07 27.93 0.1C28.01 0.14 28.09 0.18 28.16 0.23C28.24 0.28 28.31 0.34 28.37 0.4C28.44 0.46 28.49 0.53 28.54 0.61C28.59 0.69 28.64 0.77 28.67 0.85C28.7 0.93 28.73 1.02 28.75 1.11C28.77 1.2 28.77 1.29 28.77 1.38L28.77 17.71C28.2 17.41 27.6 17.19 26.97 17.03C26.34 16.88 25.7 16.8 25.05 16.81C20.55 16.81 16.9 20.48 16.9 25.01C16.9 27.36 17.89 29.49 19.47 30.98L3.62 30.98C3.5 30.98 3.39 30.96 3.29 30.91C3.18 30.86 3.09 30.8 3.01 30.71C3.97 30.25 4.62 29.28 4.62 28.15L4.62 1.41C4.62 1.32 4.63 1.23 4.64 1.14C4.66 1.05 4.69 0.96 4.72 0.87C4.76 0.78 4.8 0.7 4.85 0.63C4.91 0.55 4.96 0.48 5.03 0.41C5.09 0.34 5.17 0.29 5.24 0.23C5.32 0.18 5.4 0.14 5.49 0.1C5.57 0.07 5.66 0.04 5.75 0.02C5.84 0 5.93 3.05e-5 6.03 0ZM22.13 11.54L11.27 11.54C11.19 11.54 11.11 11.55 11.03 11.56C10.95 11.58 10.88 11.6 10.8 11.63C10.73 11.66 10.66 11.7 10.59 11.74C10.53 11.79 10.47 11.84 10.41 11.9C10.36 11.95 10.31 12.01 10.26 12.08C10.22 12.15 10.18 12.22 10.15 12.29C10.12 12.36 10.1 12.44 10.08 12.52C10.07 12.6 10.06 12.68 10.06 12.75C10.06 12.83 10.07 12.91 10.08 12.99C10.1 13.07 10.12 13.15 10.15 13.22C10.18 13.29 10.22 13.36 10.26 13.43C10.31 13.5 10.36 13.56 10.41 13.61C10.47 13.67 10.53 13.72 10.59 13.77C10.66 13.81 10.73 13.85 10.8 13.88C10.88 13.91 10.95 13.93 11.03 13.95C11.11 13.96 11.19 13.97 11.27 13.97L22.13 13.97C22.21 13.97 22.29 13.96 22.37 13.95C22.45 13.93 22.52 13.91 22.6 13.88C22.67 13.85 22.74 13.81 22.8 13.77C22.87 13.72 22.93 13.67 22.99 13.61C23.04 13.56 23.09 13.5 23.14 13.43C23.18 13.36 23.22 13.29 23.25 13.22C23.28 13.15 23.3 13.07 23.32 12.99C23.33 12.91 23.34 12.83 23.34 12.75C23.34 12.68 23.33 12.6 23.32 12.52C23.3 12.44 23.28 12.36 23.25 12.29C23.22 12.22 23.18 12.15 23.14 12.08C23.09 12.01 23.04 11.95 22.99 11.9C22.93 11.84 22.87 11.79 22.8 11.74C22.74 11.7 22.67 11.66 22.6 11.63C22.52 11.6 22.45 11.58 22.37 11.56C22.29 11.55 22.21 11.54 22.13 11.54ZM22.13 5.46L11.27 5.46C11.19 5.46 11.11 5.47 11.03 5.49C10.95 5.5 10.88 5.53 10.8 5.56C10.73 5.59 10.66 5.62 10.59 5.67C10.53 5.71 10.47 5.76 10.41 5.82C10.36 5.88 10.31 5.94 10.26 6C10.22 6.07 10.18 6.14 10.15 6.21C10.12 6.29 10.1 6.36 10.08 6.44C10.07 6.52 10.06 6.6 10.06 6.68C10.06 6.76 10.07 6.84 10.08 6.92C10.1 6.99 10.12 7.07 10.15 7.14C10.18 7.22 10.22 7.29 10.26 7.35C10.31 7.42 10.36 7.48 10.41 7.54C10.47 7.59 10.53 7.64 10.59 7.69C10.66 7.73 10.73 7.77 10.8 7.8C10.88 7.83 10.95 7.86 11.03 7.87C11.11 7.89 11.19 7.89 11.27 7.89L22.13 7.89C22.21 7.89 22.29 7.89 22.37 7.87C22.45 7.86 22.52 7.83 22.6 7.8C22.67 7.77 22.74 7.73 22.8 7.69C22.87 7.64 22.93 7.59 22.99 7.54C23.04 7.48 23.09 7.42 23.14 7.35C23.18 7.29 23.22 7.22 23.25 7.14C23.28 7.07 23.3 6.99 23.32 6.92C23.33 6.84 23.34 6.76 23.34 6.68C23.34 6.6 23.33 6.52 23.32 6.44C23.3 6.36 23.28 6.29 23.25 6.21C23.22 6.14 23.18 6.07 23.14 6C23.09 5.94 23.04 5.88 22.99 5.82C22.93 5.76 22.87 5.71 22.8 5.67C22.74 5.62 22.67 5.59 22.6 5.56C22.52 5.53 22.45 5.5 22.37 5.49C22.29 5.47 22.21 5.46 22.13 5.46Z" fill="#60666E" fill-opacity="0.298039" fill-rule="nonzero"/>
	<path id="减去顶层" d="M2.21385 10.7344L4.62894 10.7344L4.62894 28.6583C4.62894 29.9445 3.59267 30.9874 2.31448 30.9874C1.03629 30.9874 1.52588e-05 29.9445 1.52588e-05 28.6583L1.52588e-05 12.9622C1.52588e-05 11.7319 0.991211 10.7344 2.21385 10.7344ZM25.1572 18.228C28.9365 18.228 32 21.3109 32 25.114C32 28.9171 28.9365 32 25.1572 32C21.378 32 18.3145 28.9171 18.3145 25.114C18.3145 21.3109 21.378 18.228 25.1572 18.228ZM24.623 28.9289L29.8154 23.6407L28.767 22.5726L24.4708 26.9481L22.1519 24.5861L21.1035 25.654L24.319 28.9289L24.471 29.073L24.623 28.9289Z" clip-rule="evenodd" fill="#60666E" fill-opacity="1.000000" fill-rule="evenodd"/>
</svg>
