<svg t="1718692271079" class="icon" viewBox="0 0 1024 1024" version="1.1"
    xmlns="http://www.w3.org/2000/svg" p-id="1245" xmlns:xlink="http://www.w3.org/1999/xlink"
    width="16" height="16">
    <path
        d="M911.75936 113.777778c51.655111 0 93.525333 42.382222 93.525333 94.606222v360.732444a209.066667 209.066667 0 0 0-163.669333-79.075555c-116.167111 0-210.375111 95.345778-210.375111 212.935111a213.447111 213.447111 0 0 0 78.165333 165.546667H93.526471A94.094222 94.094222 0 0 1 0.001138 773.916444v-565.475555C0.001138 156.046222 41.87136 113.777778 93.526471 113.777778h818.232889zM295.31136 255.715556a132.778667 132.778667 0 0 0-132.551111 133.063111c0 48.298667 26.112 92.842667 68.266667 116.394666a212.878222 212.878222 0 0 0-146.147556 176.355556h53.589333a159.288889 159.288889 0 0 1 156.842667-133.12 159.288889 159.288889 0 0 1 156.842667 133.12h53.589333a212.878222 212.878222 0 0 0-146.204444-176.355556 133.12 133.12 0 0 0 68.266666-116.394666 132.778667 132.778667 0 0 0-132.551111-133.12z m335.758222 260.152888h-46.421333a23.552 23.552 0 0 0-23.552 23.552c0 13.198222 10.524444 23.779556 23.552 23.779556h46.421333a23.552 23.552 0 0 0 23.552-23.552 23.608889 23.608889 0 0 0-23.552-23.779556zM295.254471 308.565333a79.644444 79.644444 0 0 1 79.530667 79.872A79.644444 79.644444 0 0 1 295.254471 468.195556a79.644444 79.644444 0 0 1-79.530667-79.815112 79.644444 79.644444 0 0 1 79.530667-79.872zM818.06336 388.551111h-233.415111a23.552 23.552 0 0 0-23.552 23.552c0 13.255111 10.524444 23.779556 23.552 23.779556h233.415111a23.552 23.552 0 0 0 23.552-23.552 23.608889 23.608889 0 0 0-23.552-23.779556z m0-127.317333h-233.415111a23.552 23.552 0 0 0-23.552 23.552c0 13.255111 10.524444 23.779556 23.552 23.779555h233.415111a23.552 23.552 0 0 0 23.552-23.552 23.608889 23.608889 0 0 0-23.552-23.779555z"
        fill="#CFD1D4" p-id="1246"></path>
    <path
        d="M841.61536 518.485333c100.693333 0 182.385778 82.602667 182.385778 184.490667S942.365582 887.466667 841.61536 887.466667c-100.693333 0-182.328889-82.602667-182.328889-184.490667s81.635556-184.490667 182.328889-184.490667z m97.848889 99.328a27.875556 27.875556 0 0 0-19.911111 8.305778l-110.819556 112.071111-31.402666-31.800889a27.875556 27.875556 0 0 0-39.708445 0 28.615111 28.615111 0 0 0 0 40.163556l51.313778 51.882667a27.818667 27.818667 0 0 0 39.708444 0l130.616889-132.152889a28.615111 28.615111 0 0 0 0-40.163556 27.875556 27.875556 0 0 0-19.854222-8.305778z"
        fill="#60666E" p-id="1247"></path>
</svg>
