<svg width="32.000000" height="31.999969" viewBox="0 0 32 32" fill="none" xmlns="http://www.w3.org/2000/svg" xmlns:xlink="http://www.w3.org/1999/xlink">
	<desc>
			Created with Pixso.
	</desc>
	<defs/>
	<path id="path" d="" fill="#FFFFFF" fill-opacity="1.000000" fill-rule="nonzero"/>
	<path id="path" d="M16 0C7.16 0 0 7.16 0 16C0 24.83 7.16 32 16 32C19.37 32 22.51 30.95 25.09 29.16C25.09 29.16 25.08 29.15 25.08 29.15C25.34 28.94 25.51 28.62 25.51 28.26C25.51 27.62 24.99 27.1 24.36 27.1C24.01 27.1 23.7 27.26 23.49 27.5C23.48 27.5 23.48 27.5 23.48 27.5C21.33 28.89 18.77 29.7 16.02 29.7C8.43 29.7 2.29 23.56 2.29 15.97C2.29 8.39 8.43 2.25 16.02 2.25C23.6 2.25 29.74 8.39 29.74 15.97C29.74 19.09 28.71 21.96 26.96 24.26C26.72 24.47 26.57 24.78 26.57 25.12C26.57 25.76 27.09 26.27 27.73 26.27C28.02 26.27 28.29 26.16 28.5 25.98C28.5 25.98 28.5 25.97 28.51 25.97C28.6 25.88 28.68 25.78 28.74 25.67C30.78 22.98 32 19.63 32 15.99C32 7.16 24.83 0 16 0Z" fill="#0052D9" fill-opacity="1.000000" fill-rule="nonzero"/>
	<path id="path" d="M7.92 20.52L15.29 24.96L15.29 16.27L7.92 11.83L7.92 20.52Z" fill="#0052D9" fill-opacity=".26" fill-rule="nonzero"/>
	<path id="path" d="M15.77 6.99L8.82 10.59L16.02 15.12L23.21 11.42L15.77 6.99Z" fill="#0052D9" fill-opacity=".26" fill-rule="nonzero"/>
	<path id="path" d="M16.83 16.23L16.83 24.92L24.02 21.22L24.02 12.53L16.83 16.23Z" fill="#0052D9" fill-opacity=".26" fill-rule="nonzero"/>
</svg>
