<svg t="1718762610472" class="icon" viewBox="0 0 1024 1024" version="1.1"
    xmlns="http://www.w3.org/2000/svg" p-id="4497" xmlns:xlink="http://www.w3.org/1999/xlink"
    width="32" height="32">
    <path
        d="M922.4 219.84v584.8a23.04 23.04 0 0 1-15.296 21.728l-392 139.392a23.04 23.04 0 0 1-15.52 0l-392-139.392a23.04 23.04 0 0 1-15.36-21.632V219.776h830.176v0.032z m-271.36 187.072l-143.68 143.776-143.712-143.68a23.072 23.072 0 0 0-32.64 0l-16.32 16.32a23.04 23.04 0 0 0 0 32.576l176.32 176.352a23.04 23.04 0 0 0 32.64 0l176.384-176.32a23.104 23.104 0 0 0 0-32.672l-16.384-16.32a23.072 23.072 0 0 0-32.64 0z"
        fill="#0052D9" fill-opacity=".26" p-id="4498"></path>
    <path d="M56.864 56.896h910.24v113.76H56.864V56.896z" fill="#0052D9" p-id="4499"></path>
</svg>
