<svg t="1718692360119" class="icon" viewBox="0 0 1024 1024" version="1.1"
    xmlns="http://www.w3.org/2000/svg" p-id="1968" xmlns:xlink="http://www.w3.org/1999/xlink"
    width="16" height="16">
    <path
        d="M922.396444 219.818667v584.817777a23.04 23.04 0 0 1-15.303111 21.731556l-391.964444 139.377778a23.04 23.04 0 0 1-15.530667 0l-392.021333-139.377778a23.04 23.04 0 0 1-15.36-21.617778V219.761778h830.179555z m-271.36 187.107555L507.335111 550.684444 363.633778 406.983111a23.04 23.04 0 0 0-32.597334 0l-16.327111 16.327111a23.04 23.04 0 0 0 0 32.597334l176.298667 176.355555a23.04 23.04 0 0 0 32.654222 0l176.355556-176.355555a23.096889 23.096889 0 0 0 0-32.654223l-16.384-16.327111a23.04 23.04 0 0 0-32.597334 0z"
        fill="#CFD1D4" p-id="1969"></path>
    <path d="M56.888889 56.888889h910.222222v113.777778H56.888889z" fill="#60666E" p-id="1970"></path>
</svg>
