<svg t="1718762592320" class="icon" viewBox="0 0 1024 1024" version="1.1"
    xmlns="http://www.w3.org/2000/svg" p-id="4181" xmlns:xlink="http://www.w3.org/1999/xlink"
    width="32" height="32">
    <path
        d="M557.504 623.36v286.88a56.896 56.896 0 0 0 56.896 56.864h286.592a56.896 56.896 0 0 0 56.896-56.864v-286.912a56.864 56.864 0 0 0-56.896-56.896H614.4a56.896 56.896 0 0 0-56.896 56.896zM113.76 967.072h286.72a56.896 56.896 0 0 0 56.896-56.864v-286.912a56.864 56.864 0 0 0-56.896-56.896h-286.72a56.896 56.896 0 0 0-56.896 56.896v286.912a56.896 56.896 0 0 0 56.896 56.864zM56.864 122.56v286.912a56.896 56.896 0 0 0 56.896 56.864h286.72a56.832 56.832 0 0 0 56.896-56.864V122.528a56.896 56.896 0 0 0-56.896-56.864h-286.72a56.896 56.896 0 0 0-56.896 56.864z"
        fill="#0052D9" fill-opacity=".26" p-id="4182"></path>
    <path
        d="M728.928 40.16L554.432 214.4a56.896 56.896 0 0 0 0 80.416l174.496 174.56a56.896 56.896 0 0 0 80.416 0l174.432-174.56a56.896 56.896 0 0 0 0-80.416l-174.4-174.208a56.896 56.896 0 0 0-80.448 0z"
        fill="#0052D9" p-id="4183"></path>
</svg>
