<svg width="220.000000" height="220.000000" viewBox="0 0 220 220" fill="none" xmlns="http://www.w3.org/2000/svg" xmlns:xlink="http://www.w3.org/1999/xlink">
	<desc>
			Created with Pixso.
	</desc>
	<defs/>
	<g opacity="0.600000">
		<ellipse id="椭圆 12" cx="110.000000" cy="110.000000" rx="110.000000" ry="110.000008" fill="#FFFFFF" fill-opacity="1.000000"/>
		<ellipse id="椭圆 12" cx="110.000000" cy="110.000000" rx="109.500000" ry="109.500008" stroke="#8692B0" stroke-opacity="1.000000" stroke-width="1.000000"/>
	</g>
	<path id="path" d="M74.73 84.49C75.36 82.7 76.12 80.97 77 79.3C77.88 77.62 78.88 76.02 79.99 74.49C81.1 72.95 82.32 71.51 83.63 70.15C84.95 68.79 86.36 67.53 87.86 66.37C89.35 65.21 90.93 64.16 92.57 63.23C94.22 62.29 95.92 61.48 97.69 60.79C99.45 60.1 101.25 59.53 103.1 59.1C104.94 58.67 106.8 58.37 108.69 58.2C110.75 58 112.8 57.94 114.87 58.04C116.93 58.14 118.97 58.39 121 58.79C123.02 59.18 125.01 59.73 126.96 60.41C128.9 61.1 130.79 61.93 132.62 62.89C134.44 63.85 136.19 64.94 137.86 66.16C139.52 67.38 141.09 68.71 142.56 70.16C144.03 71.61 145.39 73.15 146.64 74.8C147.89 76.45 149.01 78.17 150 79.98C147.06 79 144.06 78.28 140.99 77.83C137.92 77.38 134.84 77.19 131.74 77.28C128.64 77.36 125.58 77.72 122.54 78.34C119.5 78.97 116.54 79.85 113.66 80.99C111.66 81.81 109.73 82.76 107.85 83.84C105.98 84.92 104.18 86.11 102.46 87.42C100.73 88.72 99.1 90.14 97.57 91.66C96.03 93.18 94.59 94.79 93.26 96.5C91.94 98.2 90.72 99.99 89.62 101.85C88.53 103.71 87.55 105.64 86.7 107.63C85.86 109.61 85.14 111.65 84.55 113.73C83.97 115.81 83.52 117.92 83.21 120.06C82.13 118.89 81.13 117.65 80.22 116.35C79.3 115.05 78.46 113.69 77.71 112.29C76.97 110.88 76.31 109.43 75.75 107.94C75.19 106.45 74.72 104.93 74.35 103.38C73.98 101.83 73.71 100.26 73.54 98.68C73.37 97.09 73.3 95.5 73.33 93.91C73.36 92.32 73.5 90.73 73.73 89.15C73.96 87.58 74.29 86.02 74.73 84.49Z" fill="#8692B0" fill-opacity="1.000000" fill-rule="nonzero"/>
	<path id="path" d="M118.89 89.05C123.22 87.51 127.69 86.68 132.28 86.56C136.88 86.43 141.38 87.02 145.79 88.32C147.33 88.81 148.83 89.4 150.3 90.1C151.76 90.79 153.17 91.58 154.52 92.46C155.88 93.35 157.17 94.32 158.4 95.37C159.62 96.43 160.77 97.56 161.85 98.78C162.92 99.99 163.91 101.27 164.81 102.61C165.71 103.96 166.52 105.35 167.23 106.81C167.94 108.26 168.55 109.76 169.07 111.29C169.58 112.83 169.98 114.39 170.29 115.98C170.53 117.27 170.71 118.57 170.82 119.88C170.94 121.19 171 122.5 170.99 123.82C170.99 125.13 170.92 126.45 170.79 127.75C170.67 129.06 170.48 130.36 170.23 131.65C169.98 132.94 169.66 134.22 169.29 135.48C168.92 136.74 168.49 137.98 168.01 139.21C167.52 140.43 166.98 141.62 166.38 142.79C165.78 143.96 165.12 145.1 164.42 146.21C163.71 147.32 162.95 148.39 162.14 149.43C161.33 150.47 160.48 151.46 159.58 152.42C158.67 153.38 157.73 154.29 156.74 155.16C155.75 156.02 154.73 156.84 153.66 157.61C152.6 158.39 151.5 159.11 150.37 159.77C149.24 160.44 148.07 161.06 146.88 161.61C145.69 162.17 144.48 162.67 143.24 163.12C142 163.56 140.75 163.95 139.48 164.28C141.17 162.46 142.7 160.51 144.06 158.44C145.43 156.37 146.62 154.2 147.64 151.93C148.65 149.66 149.47 147.33 150.09 144.93C150.72 142.52 151.15 140.09 151.37 137.61C151.52 135.93 151.58 134.24 151.55 132.55C151.52 130.86 151.39 129.17 151.17 127.49C150.95 125.82 150.64 124.16 150.24 122.51C149.84 120.87 149.35 119.25 148.77 117.66C148.19 116.07 147.53 114.52 146.78 113C146.03 111.48 145.2 110.01 144.29 108.59C143.38 107.16 142.39 105.79 141.33 104.47C140.27 103.15 139.14 101.9 137.94 100.71C135.23 98.09 132.27 95.8 129.05 93.83C125.84 91.87 122.45 90.27 118.89 89.05Z" fill="#8692B0" fill-opacity="1.000000" fill-rule="nonzero"/>
	<path id="path" d="M56.14 121.05C56.59 117.49 57.43 114.04 58.66 110.67C59.9 107.31 61.49 104.13 63.45 101.13C63.98 104.4 64.83 107.59 66 110.7C67.17 113.8 68.64 116.76 70.4 119.58C72.15 122.39 74.17 125 76.45 127.41C78.73 129.83 81.23 131.99 83.94 133.9C85.18 134.85 86.68 135.87 86.69 137.62C86.11 141.44 84.96 145.12 84.31 148.88C84.3 149.19 84.37 149.47 84.52 149.74C84.67 150 84.87 150.21 85.13 150.37C85.39 150.52 85.67 150.6 85.98 150.6C86.28 150.6 86.56 150.53 86.83 150.37C91.05 148.03 94.88 145.06 99.11 142.74C99.98 142.41 100.87 142.24 101.8 142.23C102.72 142.21 103.62 142.35 104.5 142.65C107.65 143.26 110.84 143.56 114.06 143.53C117.27 143.5 120.45 143.15 123.6 142.48C126.75 141.81 129.79 140.83 132.74 139.55C135.69 138.27 138.48 136.7 141.12 134.85C140.91 137.61 140.39 140.31 139.56 142.95C138.72 145.59 137.6 148.09 136.19 150.47C134.77 152.85 133.11 155.03 131.19 157.03C129.27 159.02 127.15 160.77 124.83 162.27C122.68 163.61 120.42 164.76 118.07 165.7C115.72 166.65 113.3 167.38 110.81 167.9C108.33 168.42 105.82 168.71 103.28 168.78C100.75 168.86 98.23 168.71 95.72 168.34C93.2 168.12 90.72 167.68 88.28 167.03C85.84 166.38 83.48 165.52 81.19 164.45C78.9 163.38 76.72 162.12 74.65 160.67C72.58 159.23 70.65 157.61 68.86 155.82C66.61 153.56 64.62 151.08 62.9 148.38C61.19 145.68 59.78 142.83 58.68 139.83C57.58 136.83 56.82 133.75 56.39 130.58C55.96 127.41 55.88 124.23 56.14 121.05Z" fill="#8692B0" fill-opacity="1.000000" fill-rule="nonzero"/>
</svg>
