<svg xmlns="http://www.w3.org/2000/svg" xmlns:xlink="http://www.w3.org/1999/xlink" fill="none" version="1.1" width="24" height="24" viewBox="0 0 24 24"><defs><clipPath id="master_svg0_335_35290"><rect x="-0.5" y="-0.5" width="25" height="25" rx="0"/></clipPath></defs><g clip-path="url(#master_svg0_335_35290)"><path d="M20.09375,16.999999000000003L17.758149,16.999999000000003L17.758149,17.0001Q17.708913000000003,17.0001,17.660623,17.009706Q17.612333,17.01931,17.566845,17.038152Q17.521357000000002,17.056993,17.480418999999998,17.084348Q17.439481999999998,17.111702,17.404667,17.146517Q17.369852,17.181331999999998,17.342498,17.222269Q17.315144,17.263206,17.296301,17.308695Q17.277459999999998,17.354183,17.267855,17.402473Q17.258249,17.450764,17.25825,17.5Q17.258249,17.549234,17.267855,17.597524Q17.277459999999998,17.645813,17.296301,17.6913Q17.315144,17.736788,17.342498,17.777727Q17.369852,17.818666,17.404667,17.853481000000002Q17.439481999999998,17.888296,17.480418999999998,17.915649000000002Q17.521358,17.943002999999997,17.566845999999998,17.961845Q17.612333,17.980687,17.660623,17.990293Q17.708914,17.999899,17.75815,17.9999L17.758149,17.999997999999998L20.09375,17.999997999999998Q20.883344,17.999997999999998,21.441671,17.441670000000002Q21.999997999999998,16.883342,21.999997999999998,16.093747L21.999997999999998,3.90625Q21.999997999999998,3.11665493,21.441670000000002,2.55832779Q20.883343,2.00000018,20.093747,2.00000012L7.90625,2Q7.11665595,2,6.558327958,2.558327902Q6.00000018,3.11665571,6.00000012,3.90625L6,6.2157998L6.00009999,6.2157998Q6.00010002,6.2650356,6.00970545,6.3133251999999995Q6.01931089,6.3616147000000005,6.03815264,6.4071028000000005Q6.05699438,6.452590900000001,6.08434835,6.4935288Q6.11170232,6.5344667,6.14651734,6.5692821Q6.18133235,6.6040969,6.22227046,6.6314507Q6.26320857,6.6588049,6.30869657,6.6776466Q6.35418455,6.6964884,6.402474351,6.7060938Q6.450764146,6.7156992,6.5,6.7156997Q6.549235854,6.7156992,6.597525649,6.7060938Q6.64581545,6.6964884,6.69130343,6.6776466Q6.73679143,6.6588049,6.77772954,6.6314507Q6.81866765,6.6040969,6.85348266,6.5692821Q6.88829768,6.5344667,6.91565162,6.4935288Q6.94300559,6.452590900000001,6.96184734,6.4071031000000005Q6.98068911,6.3616149,6.99029455,6.3133251999999995Q6.99989998,6.2650356,6.99990001,6.2157998L7,6.2157998L7.00000012,3.90625Q7.00000018,3,7.90625,3L20.093747,3.00000012Q20.999999000000003,3.00000018,20.999999000000003,3.90625L20.999999000000003,16.093747Q20.999999000000003,16.999999000000003,20.09375,16.999999000000003Z" fill-rule="evenodd" fill="#1677FF" fill-opacity="1" style="mix-blend-mode:passthrough"/><path d="M17.999997999999998,20.093747L17.999997999999998,7.90625Q17.999997999999998,7.11665493,17.441670000000002,6.55832779Q16.883343,6.00000018,16.093747,6.00000012L3.90625,6Q3.11665595,6,2.558327958,6.558327902Q2.00000018,7.11665571,2.00000012,7.90625L2,20.09375Q2,20.883344,2.55832804,21.441671Q3.1166552899999997,21.999997999999998,3.90625,21.999997999999998L16.09375,21.999997999999998Q16.883344,21.999997999999998,17.441671,21.441670000000002Q17.999997999999998,20.883342,17.999997999999998,20.093747ZM16.093747,7.00000012Q16.999999000000003,7.00000018,16.999999000000003,7.90625L16.999999000000003,20.093747Q16.999999000000003,20.999999000000003,16.09375,20.999999000000003L3.90625,20.999999000000003Q3,20.999999000000003,3,20.09375L3.00000012,7.90625Q3.00000018,7,3.90625,7L16.093747,7.00000012Z" fill-rule="evenodd" fill="#1677FF" fill-opacity="1" style="mix-blend-mode:passthrough"/></g></svg>