<svg xmlns="http://www.w3.org/2000/svg" xmlns:xlink="http://www.w3.org/1999/xlink" fill="none" version="1.1" width="40" height="40" viewBox="0 0 40 40"><defs><clipPath id="master_svg0_463_59448"><rect x="-1" y="-1" width="42" height="42" rx="0"/></clipPath></defs><g clip-path="url(#master_svg0_463_59448)"><path d="M2.333984375,30.02294890625L2.333984375,9.97672530625Q2.333984375,8.19137320625,3.596419035,6.92893856625Q4.858853675,5.66650390625,6.644205775,5.66650390625L33.357097374999995,5.66650390625Q35.142446375,5.66650390625,36.404884375,6.92893856625Q37.667320375,8.19137450625,37.667320375,9.97672530625L37.667320375,30.02294890625Q37.667320375,31.80830190625,36.404884375,33.07073790625Q35.142448375,34.33317190625,33.357097374999995,34.33317190625L6.644205775,34.33317190625Q4.858852575,34.33317190625,3.596419035,33.07073790625Q2.333984375,31.80830390625,2.333984375,30.02294890625ZM4.333984375,30.02294890625Q4.333984375,32.33317190625,6.644205775,32.33317190625L33.357097374999995,32.33317190625Q35.667320375,32.33317190625,35.667320375,30.02294890625L35.667320375,9.97672530625Q35.667320375,7.66650390625,33.357097374999995,7.66650390625L6.644205775,7.66650390625Q4.333984375,7.66650390625,4.333984375,9.97672530625L4.333984375,30.02294890625Z" fill="#333333" fill-opacity="1" style="mix-blend-mode:passthrough"/><path d="M11.103200525,14.43571969625Q9.833984555,15.70493540625,9.833984375,17.49983720625Q9.833984375,19.29473880625,11.103200705,20.56395480625Q12.372416375,21.833170406249998,14.167317675,21.833170406249998Q15.962219675,21.833170406249998,17.231435275,20.56395430625Q18.500650874999998,19.29473830625,18.500650874999998,17.49983550625Q18.500650874999998,15.70493530625,17.231434775,14.435719636249999Q15.962218275,13.16650390625,14.167315975000001,13.16650390625Q12.372416574999999,13.16650390625,11.103200525,14.43571969625ZM12.517414175,19.14974120625Q11.833984375,18.46631140625,11.833984375,17.49983720625Q11.833984375,16.533362906249998,12.517413975,15.849933406249999Q13.200843375,15.16650390625,14.167315975000001,15.16650390625Q15.133791474999999,15.16650390625,15.817221674999999,15.84993350625Q16.500650874999998,16.533362906249998,16.500650874999998,17.49983550625Q16.500650874999998,18.46631100625,15.817221674999999,19.14974120625Q15.133791875,19.833170406249998,14.167317675,19.833170406249998Q13.200843775,19.833170406249998,12.517414175,19.14974120625Z" fill-rule="evenodd" fill="#333333" fill-opacity="1" style="mix-blend-mode:passthrough"/><path d="M9.923377635,21.59085810375Q8.166015625,23.34822039375,8.166015625,25.83349609375L8.166215595,25.83349609375Q8.166215655,25.93196769375,8.185426535,26.02854729375Q8.204637405,26.12512679375,8.242320895,26.21610259375Q8.280004385,26.30707839375,8.334712325,26.38895509375Q8.389420274999999,26.470830893749998,8.459050295,26.54046149375Q8.528680325,26.61009119375,8.610556545,26.66479919375Q8.692432765,26.71950719375,8.783408765,26.75719019375Q8.874384735,26.79487419375,8.970964325,26.81408499375Q9.067543916,26.83329579375,9.166015625,26.83329629375Q9.264487334,26.83329579375,9.361066925,26.81408499375Q9.457646515,26.79487419375,9.548622485,26.75719019375Q9.639598485,26.71950719375,9.721474705,26.66479869375Q9.803350925,26.61009119375,9.872980955,26.54046149375Q9.942610975000001,26.470830893749998,9.997318865,26.38895459375Q10.052026805,26.30707839375,10.089710295,26.21610259375Q10.127393845,26.12512679375,10.146604715,26.02854729375Q10.165815595,25.93196769375,10.165815655,25.83349609375L10.166015625,25.83349609375Q10.166015625,24.17664719375,11.337591425,23.00507189375Q12.509167225,21.83349603375,14.166015625,21.83349609375Q15.822864525,21.83349609375,16.994440125,23.00507189375Q18.166015625,24.17664699375,18.166015625,25.83349609375L18.166215925,25.83349609375Q18.166215925,25.93196769375,18.185425725,26.02854729375Q18.204636524999998,26.12512679375,18.242320024999998,26.21610259375Q18.280003524999998,26.30707839375,18.334712025,26.38895509375Q18.389419525,26.470830893749998,18.459050225,26.54046149375Q18.528678925,26.61009119375,18.610555625,26.66479919375Q18.692431425000002,26.71950719375,18.783407224999998,26.75719019375Q18.874383925,26.79487419375,18.970963525000002,26.81408499375Q19.067543025,26.83329579375,19.166015625,26.83329629375Q19.264487625,26.83329579375,19.361066625,26.81408499375Q19.457645624999998,26.79487419375,19.548621625,26.75719019375Q19.639596625,26.71950719375,19.721473625,26.66479869375Q19.803350625,26.61009119375,19.872979625,26.54046149375Q19.942609625,26.470830893749998,19.997317625,26.38895459375Q20.052024625,26.30707839375,20.089708625,26.21610259375Q20.127391625,26.12512679375,20.146603624999997,26.02854729375Q20.165815625,25.93196769375,20.165815625,25.83349609375L20.166015625,25.83349609375Q20.166015625,23.34822059375,18.408653225000002,21.59085810375Q16.651291325,19.83349609375,14.166015625,19.83349609375Q11.680739925000001,19.83349599375,9.923377635,21.59085810375Z" fill-rule="evenodd" fill="#333333" fill-opacity="1" style="mix-blend-mode:passthrough"/><path d="M23.333984375,17.66650390625L30.000651375,17.66650390625L30.000651375,17.66630393625Q30.099122475,17.66630387625,30.195702075,17.64709299625Q30.292281175,17.62788212625,30.383257375,17.59019863625Q30.474233675,17.55251514625,30.556109475,17.49780720625Q30.637986175,17.44309925625,30.707616375,17.37346923625Q30.777245975,17.30383920625,30.831953975,17.22196298625Q30.886661975,17.14008676625,30.924345475,17.04911076625Q30.962029475,16.95813479625,30.981240275,16.86155520625Q31.000451075,16.76497561525,31.000451575,16.66650390625Q31.000451075,16.56803219725,30.981240275,16.47145260625Q30.962029475,16.37487301625,30.924345975,16.28389704625Q30.886662475,16.19292104625,30.831954475,16.11104482625Q30.777246475,16.02916860625,30.707616774999998,15.95953857625Q30.637986175,15.889908556249999,30.556109875,15.83520066625Q30.474233675,15.78049272625,30.383257874999998,15.74280923625Q30.292281674999998,15.70512568625,30.195702075,15.68591481625Q30.099122475,15.66670393625,30.000651375,15.66670387625L30.000651375,15.66650390625L23.333984375,15.66650390625L23.333984375,15.66670387625Q23.235512666,15.66670393625,23.138933075,15.68591481625Q23.042353485,15.70512568625,22.951377515,15.74280917625Q22.860401515,15.78049266625,22.778525295,15.83520060625Q22.696649075,15.889908556249999,22.627019045,15.95953857625Q22.557389025,16.02916860625,22.502681135,16.11104482625Q22.447973195,16.19292104625,22.410289705,16.28389704625Q22.372606155,16.37487301625,22.353395285,16.47145260625Q22.334184405,16.56803219725,22.334184345,16.66650390625Q22.334184405,16.76497561525,22.353395285,16.86155520625Q22.372606155,16.95813479625,22.410289645,17.04911076625Q22.447973135,17.14008676625,22.502681075,17.22196298625Q22.557389025,17.30383920625,22.627019045,17.37346923625Q22.696649075,17.44309925625,22.778525295,17.49780714625Q22.860401515,17.55251508625,22.951377515,17.59019857625Q23.042353485,17.62788212625,23.138933075,17.64709299625Q23.235512666,17.66630387625,23.333984375,17.66630393625L23.333984375,17.66650390625Z" fill-rule="evenodd" fill="#333333" fill-opacity="1" style="mix-blend-mode:passthrough"/><path d="M25,24.33349609375L30,24.33349609375L30,24.33329612375Q30.0984716,24.33329606375,30.1950512,24.31408518375Q30.2916307,24.29487431375,30.3826065,24.25719082375Q30.4735823,24.21950733375,30.555459,24.16479939375Q30.637334799999998,24.11009144375,30.7069654,24.04046142375Q30.7765951,23.97083139375,30.8313031,23.88895517375Q30.8860111,23.80707895375,30.9236941,23.71610295375Q30.9613781,23.62512698375,30.9805889,23.52854739375Q30.9997997,23.43196780275,30.9998002,23.33349609375Q30.9997997,23.23502438475,30.9805889,23.13844479375Q30.9613781,23.04186520375,30.9236941,22.95088923375Q30.8860111,22.85991323375,30.8313026,22.77803701375Q30.7765951,22.69616079375,30.7069654,22.62653076375Q30.637334799999998,22.55690074375,30.5554585,22.50219285375Q30.4735823,22.44748491375,30.3826065,22.40980142375Q30.2916307,22.37211787375,30.1950512,22.35290700375Q30.0984716,22.33369612375,30,22.33369606375L30,22.33349609375L25,22.33349609375L25,22.33369606375Q24.901528291,22.33369612375,24.8049487,22.35290700375Q24.70836911,22.37211787375,24.61739314,22.40980136375Q24.52641714,22.44748485375,24.44454092,22.50219279375Q24.3626647,22.55690074375,24.29303467,22.62653076375Q24.22340465,22.69616079375,24.16869676,22.77803701375Q24.11398882,22.85991323375,24.07630533,22.95088923375Q24.03862178,23.04186520375,24.01941091,23.13844479375Q24.00020003,23.23502438475,24.00019997,23.33349609375Q24.00020003,23.43196780275,24.01941091,23.52854739375Q24.03862178,23.62512698375,24.07630527,23.71610295375Q24.11398876,23.80707895375,24.1686967,23.88895517375Q24.22340465,23.97083139375,24.29303467,24.04046142375Q24.3626647,24.11009144375,24.44454092,24.16479933375Q24.52641714,24.21950727375,24.61739314,24.25719076375Q24.70836911,24.29487431375,24.8049487,24.31408518375Q24.901528291,24.33329606375,25,24.33329612375L25,24.33349609375Z" fill-rule="evenodd" fill="#333333" fill-opacity="1" style="mix-blend-mode:passthrough"/></g></svg>