<svg xmlns="http://www.w3.org/2000/svg" xmlns:xlink="http://www.w3.org/1999/xlink" fill="none" version="1.1" width="40" height="40" viewBox="0 0 40 40"><defs><clipPath id="master_svg0_463_57961"><rect x="-1" y="-1" width="42" height="42" rx="0"/></clipPath></defs><g clip-path="url(#master_svg0_463_57961)"><path d="M5,29.555555599999998L5,33.4444442Q4.9999999,34.4872656,5.70568275,35.2321453Q6.43313146,36,7.4736841,36L32.52632,36Q33.566887,36,34.294331,35.2321401Q34.999998000000005,34.487267,34.999998000000005,33.4444442L34.999998000000005,29.555555599999998Q34.999998000000005,28.5127328,34.294326999999996,27.76785848Q33.566883000000004,27,32.526314,27L7.4736841,27Q6.43313149,26.9999999,5.70568275,27.76785482Q5,28.51273471,5,29.555555599999998ZM7.1575811,33.856648Q6.99999988,33.6903143,6.99999988,33.4444442L7,29.555555599999998Q7,29.3096855,7.1575812,29.1433513Q7.2933891,29,7.4736841,29L32.526314,29Q32.706619,29,32.842422,29.1433476Q32.999998000000005,29.3096789,32.999998000000005,29.555555599999998L32.999998000000005,33.4444442Q32.999998000000005,33.6903214,32.842422,33.8566532Q32.706621,33.9999995,32.52632,33.9999995L7.4736841,33.9999995Q7.2933891,33.9999995,7.1575811,33.856648Z" fill-rule="evenodd" fill="#333333" fill-opacity="1" style="mix-blend-mode:passthrough"/><path d="M5,24.5999999L5,33.4Q5,34.453112000000004,5.69609016,35.208858Q6.42478037,36,7.4736842,36L32.526318,36Q33.575237,36,34.303923,35.208857Q35,34.453115,35,33.4L35,24.5999999Q35,23.54688692,34.303921,22.79114318Q33.575233,22,32.526318,22L7.4736841,21.9999998Q6.42477992,21.9999999,5.69609052,22.79113992Q5,23.5468874,5,24.5999999ZM7.4736842,34Q7.0000001,34,7.0000001,33.4L7,24.5999999Q7,23.99999994,7.4736843,23.99999988L32.526318,24Q33.000004000000004,24,33.000004000000004,24.5999999L33.000004000000004,33.4Q33.000004000000004,34,32.526318,34L7.4736842,34Z" fill-rule="evenodd" fill="#333333" fill-opacity="1" style="mix-blend-mode:passthrough"/><path d="M14.8965902,13.68702719725L11.08618963,22.26036260625Q11,22.454288506250002,11,22.66650390625Q11.00000006,22.76499560625,11.01921481,22.86159320625Q11.03842956,22.95819280625,11.07612062,23.049186706249998Q11.113811609999999,23.14018060625,11.16853046,23.22207350625Q11.22324938,23.30396650625,11.29289329,23.37361050625Q11.36253726,23.44325450625,11.44442981,23.49797250625Q11.52632242,23.55269150625,11.6173166,23.59038260625Q11.70831078,23.62807370625,11.80490969,23.647289306250002Q11.9015086,23.66650390625,12,23.66650390625L28,23.66650390625Q28.212217,23.66650390625,28.406141,23.58031460625Q28.496143,23.54031280625,28.576611,23.48352150625Q28.657082,23.426729206250002,28.724924,23.35533050625Q28.792767,23.28393170625,28.845377,23.20066930625Q28.897987,23.117406806250003,28.933346,23.02548030625Q28.9687,22.933552706249998,28.985443,22.83649440625Q29.002186,22.73943710625,28.999672,22.64097790625Q28.997158,22.54251860625,28.975485,22.446441606249998Q28.953812,22.350364706249998,28.913811,22.26036260625L25.103458,13.68713324525Q24.649983,12.66650390625,23.436241000000003,12.66650390625L16.5637603,12.66650390625Q15.3500168,12.66650380625,14.8965902,13.68702719725ZM13.5387669,21.66650390625L26.461233,21.66650390625L23.350099,14.66650390625L16.6499019,14.66650390625L13.5387669,21.66650390625Z" fill-rule="evenodd" fill="#333333" fill-opacity="1" style="mix-blend-mode:passthrough"/><rect x="12.5" y="4" width="15" height="9" rx="4.5" fill-opacity="0" stroke-opacity="1" stroke="#333333" fill="none" stroke-width="2" style="mix-blend-mode:passthrough"/></g></svg>