<svg xmlns="http://www.w3.org/2000/svg" xmlns:xlink="http://www.w3.org/1999/xlink" fill="none" version="1.1" width="36" height="36" viewBox="0 0 36 36"><defs><clipPath id="master_svg0_392_40296"><rect x="-1.5" y="-1.5" width="39" height="39" rx="0"/></clipPath></defs><g clip-path="url(#master_svg0_392_40296)"><path d="M6.3327363000000005,6.3327367Q1.5000002,11.165473,1.5,18Q1.5,24.834526,6.3327367,29.667263Q11.1654739,34.5,18,34.5Q24.834526,34.5,29.667263,29.667263Q34.5,24.834526,34.5,18Q34.5,11.165472,29.667263,6.3327363000000005Q24.834526,1.5000002,18,1.5Q11.165472,1.5,6.3327363000000005,6.3327367ZM8.454056699999999,27.545944Q4.5,23.591888,4.5,18Q4.5,12.4081135,8.454056699999999,8.454056699999999Q12.4081135,4.5,18,4.5Q23.591888,4.5,27.545944,8.454056699999999Q31.5,12.4081125,31.5,18Q31.5,23.591888,27.545944,27.545944Q23.591888,31.5,18,31.5Q12.4081125,31.5,8.454056699999999,27.545944Z" fill-rule="evenodd" fill="#1677FF" fill-opacity="1" style="mix-blend-mode:passthrough"/><path d="M23.302803978125,14.8182607Q23.407249478125,14.71381563,23.489311178125,14.59100127Q23.571372978124998,14.46818691,23.627898178125,14.33172292Q23.684423478124998,14.19525892,23.713239678125,14.05038947Q23.742055878125,13.90552007,23.742055878125,13.7578125Q23.742055878125,13.684136957,23.734834678125,13.61081618Q23.727613478125,13.5374954,23.713238678125002,13.46523553Q23.698865878124998,13.39297563,23.677478778125,13.32247251Q23.656091678125,13.25196946,23.627896278125,13.18390214Q23.599702878125,13.11583477,23.564971878125,13.05085874Q23.530241978124998,12.985882759999999,23.489309278125,12.92462385Q23.448377578124997,12.86336482,23.401638978125,12.80641282Q23.354900378125002,12.7494609,23.302803078125002,12.6973644Q23.250707578125002,12.645268,23.193755178125002,12.5985286Q23.136802678125,12.5517894,23.075543378124998,12.5108576Q23.014284178125,12.4699255,22.949308378125,12.4351951Q22.884332678125,12.4004647,22.816264178125,12.3722703Q22.748197578125,12.3440759,22.677694278125,12.3226891Q22.607191078125,12.3013022,22.534931178125,12.2869289Q22.462672278124998,12.2725554,22.389350878125,12.2653338Q22.316030478125,12.2581124,22.242355378124998,12.2581124Q22.094647378125,12.2581124,21.949777578125,12.2869288Q21.804908778125,12.315745100000001,21.668445078125,12.3722703Q21.531980478125,12.4287956,21.409166378125,12.5108576Q21.286352178125,12.5929196,21.181907178125,12.6973646L21.181694978125,12.6971524L12.696419978125,21.1824274L12.696632178125,21.1826396Q12.592187178125,21.2870846,12.510125178125,21.4098988Q12.428063178125,21.5327129,12.371537878125,21.6691771Q12.315012678125001,21.8056412,12.286196378125,21.95051Q12.257379978125,22.0953798,12.257379978125,22.243087799999998Q12.257379878125,22.3167629,12.264601478125,22.390084299999998Q12.271822978125,22.463404699999998,12.286196478125,22.5356636Q12.300569778125,22.6079235,12.321956678125,22.6784267Q12.343343478125,22.74893,12.371537878125,22.8169966Q12.399732278125,22.8850651,12.434462578125,22.9500408Q12.469193078125,23.0150166,12.510125178125,23.0762749Q12.551056978125,23.1375351,12.597796178125,23.194486599999998Q12.644535578125,23.251440000000002,12.696631978125,23.303535500000002Q12.748728478125,23.355632800000002,12.805680458125,23.4023714Q12.862632398125,23.449109999999997,12.923891428125,23.4900417Q12.985150338124999,23.530974399999998,13.050126378125,23.565705299999998Q13.115102348125,23.6004353,13.183169718125,23.628629699999998Q13.251237038125,23.6568241,13.321740118125,23.6782112Q13.392243208125,23.699598299999998,13.464503108125,23.713971100000002Q13.536762978125,23.7283459,13.610083758125,23.7355671Q13.683404535125,23.7427883,13.757080078125,23.7427883Q13.904787648125,23.7427883,14.049657048125,23.7139721Q14.194526498125,23.685155899999998,14.330990498125,23.6286306Q14.467454488125,23.572105399999998,14.590268848125,23.4900436Q14.713083208125,23.4079819,14.817528278125,23.3035364L14.817740178125,23.3037481L23.303015678125,14.8184726L23.302803978125,14.8182607Z" fill-rule="evenodd" fill="#1677FF" fill-opacity="1" style="mix-blend-mode:passthrough"/><path d="M12.69687611875,14.8182606Q12.59243121875,14.71381557,12.51036931875,14.59100121Q12.42830731875,14.46818686,12.37178201875,14.33172286Q12.315256818750001,14.19525886,12.28644051875,14.05038947Q12.25762411875,13.90552005,12.25762411875,13.7578125Q12.25762401875,13.684136957,12.26484561875,13.61081618Q12.27206711875,13.5374954,12.28644061875,13.46523553Q12.30081391875,13.39297563,12.32220081875,13.32247251Q12.34358761875,13.25196946,12.37178201875,13.18390214Q12.39997641875,13.11583477,12.43470671875,13.05085874Q12.46943721875,12.985882759999999,12.51036931875,12.92462385Q12.55130111875,12.86336482,12.59804031875,12.80641282Q12.64477971875,12.7494609,12.69687611875,12.6973644Q12.74897261875,12.645268,12.80592459875,12.5985286Q12.86287653875,12.5517894,12.92413556875,12.5108576Q12.985394478749999,12.4699255,13.05037051875,12.4351951Q13.11534648875,12.4004647,13.18341385875,12.3722703Q13.25148117875,12.3440759,13.32198425875,12.3226891Q13.39248734875,12.3013022,13.46474724875,12.2869289Q13.53700711875,12.2725554,13.61032789875,12.2653338Q13.68364867575,12.2581124,13.75732421875,12.2581124Q13.90503176875,12.2581124,14.04990118875,12.2869287Q14.19477057875,12.315745100000001,14.33123457875,12.372270199999999Q14.46769857875,12.4287956,14.59051292875,12.5108576Q14.71332728875,12.5929195,14.81777231875,12.6973644L14.81798431875,12.6971524L23.30325981875,21.1824274L23.30304811875,21.1826396Q23.40749361875,21.2870846,23.48955531875,21.4098988Q23.571617118749998,21.5327129,23.62814231875,21.6691771Q23.684667618749998,21.8056412,23.71348381875,21.95051Q23.74230001875,22.0953798,23.74230001875,22.243087799999998Q23.74230001875,22.3167629,23.73507881875,22.390084299999998Q23.72785761875,22.463404699999998,23.713482818750002,22.5356636Q23.699110018749998,22.6079235,23.67772291875,22.6784267Q23.65633581875,22.74893,23.62814041875,22.8169966Q23.59994701875,22.8850651,23.56521601875,22.9500408Q23.530486118749998,23.0150166,23.48955341875,23.0762749Q23.448621718749997,23.1375351,23.40188311875,23.194486599999998Q23.355144518750002,23.251440000000002,23.303047218750002,23.303535500000002Q23.250951718750002,23.355632800000002,23.193999318750002,23.4023714Q23.13704681875,23.449109999999997,23.075787518749998,23.4900417Q23.01452831875,23.530974399999998,22.94955251875,23.565705299999998Q22.88457681875,23.6004353,22.81650831875,23.628629699999998Q22.74844171875,23.6568241,22.67793841875,23.6782112Q22.60743521875,23.699598299999998,22.53517531875,23.713971100000002Q22.462916418749998,23.7283459,22.38959501875,23.7355671Q22.31627461875,23.7427883,22.242599518749998,23.7427883Q22.09489151875,23.7427883,21.95002171875,23.7139721Q21.80515291875,23.685155899999998,21.66868921875,23.6286306Q21.53222461875,23.572105399999998,21.40941051875,23.4900436Q21.28659631875,23.4079819,21.18215131875,23.3035364L21.18193911875,23.3037481L12.69666411875,14.8184726L12.69687611875,14.8182606Z" fill-rule="evenodd" fill="#1677FF" fill-opacity="1" style="mix-blend-mode:passthrough"/></g></svg>