<svg xmlns="http://www.w3.org/2000/svg" xmlns:xlink="http://www.w3.org/1999/xlink" fill="none" version="1.1" width="36" height="36" viewBox="0 0 36 36"><defs><clipPath id="master_svg0_392_40308"><rect x="-1.5" y="-1.5" width="39" height="39" rx="0"/></clipPath></defs><g clip-path="url(#master_svg0_392_40308)"><path d="M29.667263,6.3327367Q24.834526,1.5,18,1.5L18,1.5002999Q17.926325,1.5002999,17.853003,1.5075214Q17.779682,1.5147429,17.707421,1.5291164Q17.635162,1.5434897,17.564658,1.5648766Q17.494156,1.5862634,17.426085999999998,1.6144578Q17.358021,1.6426522,17.293044000000002,1.6773825Q17.228068999999998,1.712113,17.166809,1.7530451Q17.105551,1.7939769,17.048599,1.8407161Q16.991647999999998,1.8874555,16.93955,1.9395519Q16.887455,1.9916484,16.840715,2.04860038Q16.793976,2.10555232,16.753042999999998,2.16681135Q16.712111999999998,2.22807026,16.677382,2.2930463Q16.642651,2.35802227,16.614456,2.42608964Q16.586261999999998,2.4941569599999998,16.564875999999998,2.56466004Q16.543489,2.63516313,16.529114999999997,2.70742303Q16.514742,2.7796829,16.507521,2.85300368Q16.500299,2.926324457,16.500299,3Q16.500299,3.073675543,16.507521,3.14699632Q16.514742,3.2203171,16.529114999999997,3.29257697Q16.543489,3.36483687,16.564875999999998,3.43533999Q16.586261999999998,3.5058430400000002,16.614456,3.57391036Q16.642651,3.64197773,16.677382,3.70695376Q16.712111999999998,3.77192974,16.753042999999998,3.83318865Q16.793976,3.89444768,16.840715,3.9513996799999997Q16.887455,4.0083516,16.93955,4.0604481Q16.991647999999998,4.1125445,17.048599,4.1592839Q17.105552,4.2060230999999995,17.166809999999998,4.2469549Q17.228068999999998,4.287887,17.293045,4.3226174Q17.358021,4.3573478,17.426087000000003,4.3855422Q17.494156,4.4137366,17.564659,4.4351234Q17.635162,4.4565103,17.707421,4.4708836000000005Q17.779682,4.4852571,17.853003,4.4924786999999995Q17.926325,4.4997001,18,4.4997001L18,4.5Q23.591888,4.5,27.545944,8.454056699999999Q31.5,12.4081125,31.5,18Q31.5,23.591888,27.545944,27.545944Q23.591888,31.5,18,31.5Q12.4081125,31.5,8.454056699999999,27.545944Q4.5,23.591888,4.5,18L4.4997001,18Q4.4997001999999995,17.926325,4.4924786,17.853003Q4.4852571,17.779682,4.4708836000000005,17.707421Q4.4565103,17.635162,4.4351234,17.564658Q4.4137366,17.494156,4.3855422,17.426085999999998Q4.3573478,17.358021,4.3226175,17.293044000000002Q4.287887,17.228068999999998,4.2469549,17.166809Q4.2060230999999995,17.105551,4.1592839,17.048599Q4.1125445,16.991647999999998,4.0604481,16.93955Q4.0083516,16.887455,3.95139962,16.840716Q3.89444768,16.793976999999998,3.83318865,16.753042999999998Q3.77192974,16.712111999999998,3.7069537,16.677382Q3.64197773,16.642652,3.57391036,16.614456Q3.5058430400000002,16.586264,3.43533996,16.564877Q3.36483687,16.543489,3.29257697,16.529116000000002Q3.2203171,16.514744,3.14699632,16.507522Q3.073675543,16.5003,3,16.500299Q2.926324457,16.5003,2.85300368,16.507522Q2.7796829,16.514744,2.70742303,16.529116000000002Q2.63516313,16.543489,2.56466001,16.564877Q2.4941569599999998,16.586264,2.42608964,16.614456Q2.35802227,16.642652,2.29304624,16.677382Q2.22807026,16.712111999999998,2.16681135,16.753042999999998Q2.10555232,16.793976999999998,2.0486003200000003,16.840716Q1.9916484,16.887455,1.9395519,16.93955Q1.8874555,16.991647999999998,1.8407161,17.048599Q1.7939769,17.105552,1.7530451,17.166809999999998Q1.712113,17.228068999999998,1.6773826,17.293045Q1.6426522,17.358021,1.6144578,17.426087000000003Q1.5862634,17.494156,1.5648766,17.564659Q1.5434897,17.635162,1.5291164,17.707421Q1.5147429,17.779682,1.5075213,17.853003Q1.5002998,17.926325,1.5002999,18L1.5,18Q1.5000002,24.834526,6.3327363000000005,29.667263Q11.165472,34.5,18,34.5Q24.834526,34.5,29.667263,29.667263Q34.5,24.834526,34.5,18Q34.5,11.1654739,29.667263,6.3327367Z" fill-rule="evenodd" fill="#1677FF" fill-opacity="1" style="mix-blend-mode:passthrough"/><path d="M10.575384,25.424618Q13.6507673,28.5,18,28.5L18,28.499701Q18.0736761,28.499701,18.146997499999998,28.492479Q18.2203178,28.485256,18.2925768,28.470882Q18.364836699999998,28.456511,18.435339900000002,28.435123Q18.5058422,28.413736,18.5739098,28.38554Q18.6419773,28.357346,18.706953,28.322617Q18.771928799999998,28.287886,18.8331881,28.246952Q18.8944473,28.20602,18.9513988,28.159283Q19.008350999999998,28.112545,19.060448,28.060448Q19.112544,28.008352,19.159283000000002,27.951401Q19.206022,27.894447,19.246954000000002,27.833189Q19.287886,27.771931,19.322617,27.706955Q19.357347,27.641979,19.385542,27.57391Q19.413736999999998,27.505844,19.435124000000002,27.435341Q19.456511,27.364838,19.470883999999998,27.292576Q19.485258,27.220318,19.492479,27.146996Q19.499701,27.073677,19.499701,27Q19.499701,26.926325,19.492479,26.853004Q19.485258,26.779682,19.470883999999998,26.707422Q19.456511,26.635164,19.435124000000002,26.564661Q19.413736999999998,26.494158,19.385542,26.426088Q19.357347,26.358021,19.322617,26.293045Q19.287886,26.228069,19.246954000000002,26.166809Q19.206022,26.105551,19.159283000000002,26.048599Q19.112544,25.99165,19.060448,25.939552Q19.008350999999998,25.887455,18.9513988,25.840717Q18.8944473,25.793976,18.8331881,25.753044Q18.771928799999998,25.712112,18.706953,25.677383Q18.6419773,25.642653,18.5739098,25.614456Q18.5058422,25.586264,18.435339,25.564877Q18.3648357,25.543491,18.2925758,25.529116Q18.2203169,25.514744,18.1469965,25.507523Q18.0736761,25.500301,18,25.500299L18,25.5Q14.8934083,25.5,12.6967039,23.303296Q10.5,21.106593,10.5,18.0000038Q10.5,14.8934078,12.6967041,12.6967041Q14.8934088,10.4999998,18,10.5Q21.106592,10.5,23.303296,12.6967041Q25.5,14.8934078,25.5,18L25.500299,18Q25.500299,18.0736761,25.507521,18.146997499999998Q25.514744,18.2203178,25.529116,18.2925768Q25.543489,18.364836699999998,25.564877,18.435339900000002Q25.586262,18.5058422,25.614456,18.5739098Q25.642653,18.6419773,25.677383,18.706953Q25.712112,18.771928799999998,25.753044,18.8331881Q25.793976,18.8944473,25.840717,18.9513988Q25.887455,19.008350999999998,25.93955,19.060448Q25.991648,19.112544,26.048599,19.159283000000002Q26.105551,19.206022,26.166809,19.246954000000002Q26.228069,19.287886,26.293045,19.322617Q26.358021,19.357347,26.426088,19.385542Q26.494158,19.413736999999998,26.564661,19.435124000000002Q26.635164,19.456511,26.707422,19.470883999999998Q26.779682,19.485258,26.853004,19.492479Q26.926325,19.499701,27,19.499701Q27.073677,19.499701,27.146996,19.492479Q27.220318,19.485258,27.292576,19.470883999999998Q27.364838,19.456511,27.435341,19.435124000000002Q27.505844,19.413736999999998,27.57391,19.385542Q27.641979,19.357347,27.706955,19.322617Q27.771931,19.287886,27.833189,19.246954000000002Q27.894447,19.206022,27.951401,19.159283000000002Q28.008352,19.112544,28.060448,19.060448Q28.112545,19.008350999999998,28.159283,18.9513988Q28.20602,18.8944473,28.246952,18.8331881Q28.287886,18.771928799999998,28.322617,18.706953Q28.357346,18.6419773,28.38554,18.5739098Q28.413736,18.5058422,28.435123,18.435339Q28.456511,18.3648357,28.470882,18.2925758Q28.485256,18.2203169,28.492479,18.1469965Q28.499701,18.0736761,28.499701,18L28.5,18Q28.5,13.6507683,25.424616,10.5753839Q22.349232,7.5,18,7.5Q13.6507678,7.5,10.5753839,10.5753839Q7.5,13.6507683,7.5,18.0000038Q7.4999999,22.349235,10.575384,25.424618Z" fill-rule="evenodd" fill="#1677FF" fill-opacity="1" style="mix-blend-mode:passthrough"/></g></svg>